<mxfile host="app.diagrams.net" modified="2023-06-06T09:36:11.542Z" agent="Mozilla/5.0 (Windows NT 10.0; Win64; x64) AppleWebKit/537.36 (KHTML, like Gecko) Chrome/114.0.0.0 Safari/537.36" etag="hzFrGbHp1KPgZaDDWgB3" version="21.3.2" type="github">
  <diagram name="Page-1" id="x6VWTZ31vIRzJS5RTLA4">
    <mxGraphModel dx="3134" dy="764" grid="1" gridSize="10" guides="1" tooltips="1" connect="1" arrows="1" fold="1" page="1" pageScale="1" pageWidth="850" pageHeight="1100" math="0" shadow="0">
      <root>
        <mxCell id="0" />
        <mxCell id="1" parent="0" />
        <mxCell id="BEkTw003qSyDK9eR2Wev-4" value="&lt;font style=&quot;font-size: 18px;&quot;&gt;Jenkins Integration with RDOi - Solution 2&lt;/font&gt;" style="swimlane;childLayout=stackLayout;resizeParent=1;resizeParentMax=0;horizontal=1;startSize=20;horizontalStack=0;html=1;" parent="1" vertex="1">
          <mxGeometry x="-1482" y="559" width="1320" height="561" as="geometry" />
        </mxCell>
        <mxCell id="BEkTw003qSyDK9eR2Wev-5" value="&lt;font style=&quot;font-size: 18px;&quot;&gt;Develoer&lt;/font&gt;" style="swimlane;startSize=20;horizontal=0;html=1;fillColor=#ffcd28;strokeColor=#d79b00;gradientColor=#ffa500;" parent="BEkTw003qSyDK9eR2Wev-4" vertex="1">
          <mxGeometry y="20" width="1320" height="130" as="geometry" />
        </mxCell>
        <mxCell id="BEkTw003qSyDK9eR2Wev-6" value="" style="whiteSpace=wrap;html=1;fillColor=#fff2cc;strokeColor=#d6b656;" parent="BEkTw003qSyDK9eR2Wev-5" vertex="1">
          <mxGeometry x="21" width="1299" height="130" as="geometry" />
        </mxCell>
        <mxCell id="BEkTw003qSyDK9eR2Wev-7" value="" style="points=[[0.35,0,0],[0.98,0.51,0],[1,0.71,0],[0.67,1,0],[0,0.795,0],[0,0.65,0]];verticalLabelPosition=bottom;sketch=0;html=1;verticalAlign=top;aspect=fixed;align=center;pointerEvents=1;shape=mxgraph.cisco19.user;fillColor=#005073;strokeColor=none;" parent="BEkTw003qSyDK9eR2Wev-5" vertex="1">
          <mxGeometry x="30" y="55" width="30" height="30" as="geometry" />
        </mxCell>
        <mxCell id="BEkTw003qSyDK9eR2Wev-8" value="" style="shape=image;verticalLabelPosition=bottom;labelBackgroundColor=default;verticalAlign=top;aspect=fixed;imageAspect=0;image=data:image/png,iVBORw0KGgoAAAANSUhEUgAADwAAAAhwBAMAAABikNZBAAAAJFBMVEVHcEyki4SMkp2hjYiMkp2Mkp3ucCeMkp3iQyn8bSb8oybxWieCvz1WAAAAB3RSTlMAKZJbyuuZamxQJAAAhoZJREFUeNrs3V2K4zgUBtAOhjynCYQsI/VivJwMDYW30RQUWvZMzcB0d3V+bGNJbd1zliDB/STdG+fLFwAAAAAAAAAAAAAAAAAAAAAAAAAAAAAAAAAAAAAAAAAAAAAAAAAAAAAAAAAAAAAAAAAAAAAAAAAAAAAAAAAAAAAAAAAAAAAAAAAAAAAAAAAAAAAAAAAAAAAAAAAAAAAAAAAAAAAAAAAAAAAAAAAAAAAAAAAAAAAAAAAAAAAAAAAAAAAAAAAAAAAAAAAAAAAAAAAAAAAAAAAAAAAAAAAAAAAAAAAAAAAAAAAAAAAAoJTj65hSen89WIpa+tf0sQXfbAFAIF/7j/xN6fXbV4tRxe74b/7+cwZ6kcAAcar/f8X/w5vyX8Vp/H8L/rIaAEF0P/I3JU+gNRx/5G96l8AAQe6/ffqZ8l9hC8afd+D9YkUAIjj9Uv2V/wp+PQKlNysCEO729fEIbU0KO37eAq8QABEuwOkzV+DChs874AoMEPAC7ApcWvf7FlytCkDz1f+34p/eD5alpN/fIFyBAUJWfy3IssYbW3CxLABt292q/t6gS+pubcHVugA0HsA3ir836KJuvUH4IhlAyOrvp8D1t0AAA7RtuFX9PYAWdLMJoAkM0Lrb1d8UVjldsgUArl8eQAUwAAUckwCu7HR7C/wSGCBi9deBLKe/cwayMgACmIxGjxAAAQ1JB7KuO134lF6sDUC865dvYdUPYGcggIjVXweylDtD0AIYIGb1F8Cl3OvCG4MGaNn+XvVPB4tTRu8MBOD65WvQ5Y13t8AZCCDg9UsHsnoA+ykYQLt296u/MejqW3C1OgCt6u5XfyNAZdzvwgtggIYD+H71NwJUxinpAgC4fhkBKu5sCwBcv4wAlTcIYICA+uQBtK4HM1jOQAAxq78ALqETwAAC2Bh0eQ+68M5AAO0G8KPq/3awQJUD2G+xARrVPar+PkZZwunhFjgDAQSs/jqQJfQCGED19yGm4h524f0lFUCrHld/I0DVA9gjBEDEADYGnd/DLrwzEEDM65cOZH77xwFsDBqgScfH1V8HMr/HY3D+EQMgZPUXwPn1AhggoPOTAL5YotzGpAsAEM+QjADV9aQLn9KLNQKId/0yApRdNzoDAaj+OpDFPevCp+/WCKA9+ySA//QA9ltsgIgBbAw6t+FpANsCgIDXLx3I3ManjxAXiwTQnF4AV/Z0CNo/YgDErP46kHl1AhhAAAvg8p534T1CADR4/Xpe/X2IKa/nXXhnIICQ1y8jQHmdnYEAXL90IIvbDQIYIKA+6UBWDuBxwhZ4hABozZTq70uIOU3ownuEAIh5/TIClNM+eYQACBjAU6q/DmT1APaXVACNOU0K4IuFyqeftAXWCSBgAOtA5jR6hAAIaBDAlU3qwvtLKoCQ1y8jQDkDONkCANcv/0dbXCeAASJW/2kBrAOZz7QuvJ+CAYSs/jqQ+fTTdsAYNEDIAL5YqlyG5BECIJ5z0oGsbJwYwM5AAAGvXz7ElM3EMThnIICY1V8HMpdOAAOo/gK4vKldeH9JBdCS/dTqbwSoegD7HRJAxABOLxYrj8EZCCCgfnIA60BmMk4O4IvFAohX/QVwJrvpW3C1WgABq78OZB7TmwACGKChAJ5e/Y1BVw9gjxAAzehmBPDBcuVwmr4F/pIKIOL16/1quXI4OwMBBDR9CFoHMo8ZXXh/SQXQjiHpQNbVzQngi/UCaMSc6u9LiFkCODkDAcQz6/1TBzKH/ZwA9pdUABGvXz7ElMNp1hZYL4CA1V8HModeAAOo/sagi5vVBNAFAGjFkIwAbSmAPUIANGJe9TcClCGAkzMQgOuXB9DiuuQMBBDPvBksAVx/C/wlFUAT9vOqvy8hrm+YeQayYgABr19GgNY3eoQACOicjABtLICvlgxg+3Yz3z+NAK2/BaMzEIDqrwNZ3NwmgAAGaEGXBPDWAthfUgE0YD87gA8WbV1nWwDg+jXBi0Vb1zA7gC8WDWDz+qQDWdk4ewsEMMDm7eZXfx3IdXXzt+Bq1QACBrAvIa4cwMkjBIDqbwSouL0ABhDARoDKOzkDAaj+OpDFzf4UmQAGaEEvgGsH8LhgCwQwwNYtqf46kNUD+GLdAAIG8Jv714oWdOGdgQBiXr90INe0XxLA/pIKYOOOSQBX1i/aAusGsG1LhqB1IFc1CmCAgM6LAvhq4WoHsEcIgG0bkhGguhZ14f0lFUDI65evQa8ZwMkZCCCeblkA60CuZ1kX3hkIYOMBvKz660AKYAAqVH9fQlzP4AwEIIB1IMsbFwbwxdIBxLt+CeDVLByC9ltsgJjVXwdyLd3SLbhaO4CA1d8Y9FqWNgE8QgBsOoCXVn8jQNUD2CMEwIbtFwfwxeKtY3AGAnD98gBa3ugMBBDPrhfAtbdgcQAbgwYIWf2/W71VLO7CG4MGiBnAf7N3d6mx40AYQGkM/RwINFlG3xfj5TQEBm/jEhi07OFOuMxkJj/dbUklp85Zggz6pKqybQSojmNRhABIGMD37/5GgMID2BkIYLfun8HSgaxkdgYCEMA6kP1rEMuGRyCAAfZqFcDRAbwKYAABfJNny1cjgDc8AVNYACmvXy/uXxVMxRkIIOHuvyWAjQDVsKULbwwaIOXurwNZw7zlCfglFUDKAL5YwO3WoggBkM9SjADtOoDPFhAgYQAbAdpu0xicMxBAzt1fB3K7xyKAAfKZBHC0bV14Y9AA+3Tctvsbg95uEcAAAlgBdHcBbAwaYJdOAjjauvERnC0hwP4cNl6/FEC3P4KtAXyxhgAJd38BHF2DUIQA2KNp6+5vDHqrrV14ZyCAnAH8YBGDb8B+SQWQcffXgdzqyRkIIKG56EDG2tyFNwYNsEerAA42CWAA1y8jQP1tnsHSBQDIGcA6kOEBrAgBsDvT9t3f/2i3OVV4BFYRIOHurwC6zVwUIQDs/gK4twpNAAEMsD9L0YHcfwAbgwbYnRq7vw8xbVGhC+8MBJDz+qUAusVjjQD2KhjA3nb/GgFcBPAGJwEMYPcXwP3VGIPzHhLA3jxVCeCzhbxflRqELgBAygA2AhQdwB4BwL4c6uz+OpDhj0AAA2Tc/XUg71enC19+WkmAPTkWASyAAdhrABuDvt+TMxCAANaB7G+tFMDOQAB7MgvgYJW68P6IAZBz9zcGfa9JAAMIYB3I/mo1ARQhAHZ1/aq1++tA3utU6xE8W0uAhAHsY5T3enIGAnD90oHs7rAIYICE5qIDGRzAqyIEQEL1dn8fYrpPvSaAIgRAyuvXy4PlDA5gRQiAjAGsA3mfY70A9i42wG7Um8HSgYx/BN7FBhDAXFuDmIsiBEA+SzECFBzAa8VHIIABMgawEaC7ArjiEyg/rCfATtS8fimAhgewMxDATkwCOFrNLrwxaIC9ONbc/XUg7zHXfALGoAEyXr+MQd9jFcAACT0VHchvFcDOQAD7sFQNYP+jvV3Vt5CMQQPk3P0VQG/3uCpCAOQzCeBodbvwfkkFsA91h6C9h3SHul147yEBpAxgHcjbLc5AAPkcKtc/dSDDA9irYAC7MBcdyOAz0Fr5EVysKUDC3V8H8lZTEcAAAlgHsrvaXXhdAICU1y8BfKuTRwDg+mUESAADsMvdXwfyRtWbAH5JBbAH9Xd/HcjwAFaEAMgYwMagb1O9C+8MBJAzgHUgb3MUwAAZr18NAvhsWW9RvwvvjxgAKXd/HcjbzAIYwO5vDLq/tegCAOSzFB3IWA2GoP2SCiDl9csY9G0BXJyBAFy/FEC7m1oE8LN1BRh89xfA0VqMwSlCAKTc/X0J8RYtxuCMQQPkDGAdyBusRRECIJ8nAfwtA9i72ACDW4oOZKxDmwC+WFmAhLu/DuT12jQBFCEAxjYVAfw9A/inlQUY2bFRAD9Y2mu16cKXF48AIGEAK4Beb3EGAkjoJICDNerCG4MGyLn760Bea2r1CC7WFiBhAHsP6VqtmgCKEABDB3Cr3V8HMjyA/Y4BYGBTswA+W9zrnJyBAOz+OpD9axCzAAZIaBbA0QG8NnsEAhhgXEsxAvRtA9gZCGBc7XZ/H2K6TrMuvDMQQM7rlw7kdY7tAtirYADDemwXwDqQ12k3BuePGAApd39fQrzOHwIYQAAbAeqvYQ1CFwBgWEsxAhSrYRe+lB/WFyDf9csI0FUaDkE7AwGMu/u3DGAdyGu0bAI4AwGkvH7pQApgAN53bLn7G4O+xuIMBOD6pQPZ39o0gJ2BABJev/yP9gpNh6C9CgaQc/fXgfzaJIABBLAx6P7aduF1AQAGvX613f2NAH2tbRdeEQIg5fXLh5i+9uQMBOD6pQDa3WFp/AgEMMCI5sa7/09L/FUAr40fwdkaAyTc/QXwVxp34Y1BA+QM4JcHi/y51l14XQCAIQO49e5vBCg8gH0MBSDj7q8D+ZXZGQggoVPRgQyuQawCGCChpehAfvcAVoQAGFD73V8H8nPNh6B9DAUg5/VLATQ8gBUhAMbb/QVwtPZdeF+DBhhP+yFoHcgvzO2fgF9SAWS8fgngz61FEQIgn6eiA/n9A9gZCGA4S4fd3xj0Zw6rMxCA65cOZHeTAAaw++tA9tejC++XVACj6TEE7Yfwn5p7PAHvIQGkDGAfYvpEjy68IgTAaLrUP3UgP7N2eQRnCw0wkkOX65cO5GePoE8AX6w0QMLd3xj0xx6LAAbIZ+qz++tAfqxPF14XACBnAJ8t9UdOzkAArl8KoP0tAhjA9UsBtLtOXXhj0ABj6bX7G4P+yCSAAQRwww8xPVjrDwK4KEIA5NOt/qkD+ZFeXXi/pAIYKoB77f4KoOEB7F1sgIGcBHC0WQADCGDvIfWvQazdHsGD1QYYxlKMAGUJYB9DARhIv+uXKawPArg4AwG4fgng7o79AtgYNMAwJgEcrV8XvrxYbYCEu78RoPf168IbgwbIGcA6kO9aiyIEgOuXDuR3DuDyw3IDJAxgHcj3TKsiBEA+h567vw7ke3o2AQQwQMrrlw5keAArQgAM4thz9/chpvcsxRkIQAArgH7zAHYGAhjDSQAH69qF90sqgFF2/67XLx3Id0x9A/hixQESXr+MQf9f3yaAIgTAIAHcd/c3AhQewIoQAEOY+u7+OpD/d3IGArD760D2r0EsAhggobnoQAYH8KoIAZBQ793/pyX/bwAXAQwggNuPAD1Y87eORRECIOH1q3cA60CGB7AxaIABPBYF0GC9u/DexQYYwal7AF8s+luLAAYQwAK4u+5NgFIerDpAvutXebbobwO4+xP40xQWQLz+1y9TWG9N3Z+AMWiAAa5fAjjasX8AG4MGCNe/BawD+R9z/ydgCgsg4/XLe0hvLUURAsANWAeyuzUggJ2BABJev3Qg3wjownsVDCDn7q8D+W/TqggBYPcXwN1FNAH8kgogWsQMlhEgAQwggCN2fwXQf1ucgQBcvwRwdyFdeGPQANHmogCaMYCNQQOk3P29h/SPmCaAAAZIGcA6kOEBrAsAEBvARQDnDOAXjwAg0lQUQIPNzkAACZ0EcHQNYg16BAIYINJSdCCTBvDZ2gMEitr9dSB/i2oCOAMBpAxgHcjwAH629gBxwuqfPsT0W1QX3rvYACl3fx3I3+aoJ+CXVAApA/hi8V+tRRcAIJ8lLICNAL0KawIoQgDkDGAdyPAAdgYCiBO3++tAvgobghbAAJG7f1wA+xDTq7guvCIEQMrrlwB+FdcEUIQASHn9Kj8s/y+BNQhj0AApA1gHMjqAjUEDhAmsf+pA/u0QGcAX6w+QcPfXgfzlWBQh/mLv/lbb2K44AB8xoGsVgwh5CuVGCD+NIRCE+hQhUCb4vjjxVQgYtB+gOPjl2p5DS09qOUq0Z/aaWd/3CB7v/dP6MxJAPl3TAF55AG2HAP17f3+AhOWXn2NoHsA+AwFkDGAN0H/b+QwEoPwSwOPbN30EAhigiUXb298EsvEU3ho0QM4ANoFsPQQQwACNArgXwLkD2BQAIGMAm0C2nsL7DASQ8vbXAP3tt60ABhDAGqDj9yD2jR+BAAZoYdf49n8rgHtTAICEWpdfGqBdrwkBkLD8EsCtLXtNCICE5ddeA7Sx1lN4P0kFkPL2twK0FcAAAtgEcnzNexCmAAAN7HoTyLaaT+F9BgLIGcDZG6CdAAZQfgng8bUfAvhJKoDxLQME8EoAN/bBQQAYPYDb3/7Z30NqPwSwBg2QsvzKPoHc95oQAALYBHJsAabwvgwFYPzbP0D/M3kDtIsQwDeOAkDC8it3AEfoQXgPCWD0AI5w++eeQIYIYGvQACOLsASdvP565TMQgPJLAI9vHyKAN84CgABOJcQU3ho0QMryK/UEsgvxBKxBA6Qsvz6s8j6CGFN4a9AAKQM48wQySAC/cxgAxnQV4/bPPIGMMYW3Bg2Q8vZPPIEM8VVkAhhgbEFu/8QTyCBDgL4XwABjinL7512DXvQ+AwEIYA3Q0XUCGCBj+RUlgPM2QKNM4X0bNMCYrgRwa9soT+BvjgNAwvIr7xr0XgADCGATyMwBvHEeAEaz69VfbcWZwtvCAkh5+2cN4KteAAPk0wUK4FXORxBnCNC/dyAAxrKMc/tnnUDGGQJ4DwkgZQBnbYAGCmDfBg0wmrUAbm2vCQGQ0LbXAG0r0Bpc5p+kAsh8++cM4EhDAAEMMJYuUgDnnECGCmBr0ABjBXCk2z/nBDLSFL5/t3ImAPIFcM4G6KteEwJA+SWAxxZqCp/4J6kARrbtTSAb9yBiBfDGmQAYRazb/0PC+ivWEMC3QQOMI1j/M+MEchkrgN86FAAJAzhjAzTWFD7tT1IBjOwq1u2fcAtrsRXAAAmtBbAehPeQAMa3600gBfCfvHEqAEYQ7fbPtwYdbAnaGjRAzgDO1wANF8AfnAqAEW7/aAGc74uY1gIYIKFltNs/33tI22hPwBo0QMbyK98EMlwPwho0wAhehQvgdGvQe00IgIR2vQlkW4u9JgRAPgFv/2wTyHhDAAEMMLwuYACvBHBj7x0MgKHFW4JO90VM8abwtrAAcgZwsgboLmAAb5wMgIEF7H8ma4AGnMJbgwYY/vbfBrz9c61BdxED+MbRAEhYfuWaQEYcAliDBhg8gHsBLIB9GQrA6LqIt3+uBujaZyCAhNYCuHUPYieAAQSwCeT4AbwP+Qg2zgbAoGLe/pnWoAUwgADWAG0g5hTeGjRAyvIrUwAve00IgHy6mAGcqQEacwqf7iepANz+yQI45FeRCWCArAGcZwIZdAjgPSSAYe2CBnCeL2KKGsDZfhMSYGRRb/889dei14QAyGchgFuLOgSwBg0wpGXUAO7TBPBWAANkDOCot3+eCWTYj0DWoAEGFLb/mWcCGTeAN84HwGB2vQZoW2Gn8Ml+ExJA+ZWsAXq114QAyKcLHMCrHI8g7hCgf++AAAwWwHFv/ywTyMABbA0aYDBxl6DTNEB3vSYEgAAWwAI45S9iAIwtcP8zyQQy8BK0AAbIefvnmEAGnsJ7DwkgZwDnmEBGHgJ4DwlgsACOfPvnWIMOHcDWoAEGErr/maMBuu01IQDyWQvg1j2IvQAGSCh0+ZViAhk7gK1BAwwk9u3/IUH9FXsIYAsLIGUAZ2iALgUwQELB+58ZGqCxp/BpfpIKYGRXffAA/svcLd4JYICE1k+xvZu/v8Z+Av9YOSUAA7j+FNtjP3sfYz+Bv79xSgCGCOBj7Ov/fv4B/C32Eyi2sACGcCgCuLFPAhggn8WhBC+BZ5+/t8Hzt3x1TADqWxYBbAT8cgA/OCYAgwRw8B70oxFwS5//FcAr5wSgunWJXgIL4MYFcHnYOCcA1b0u0UvgewHcOIDLjXMCUNviIIDtYL3cgS7WoAHq634P4KMAFsCnC+DyxUEBqB7Av1+wsUvgmQ+BP4YvgMvXlZMCUNnyjwA+CmABfLIAtgYNUN9aANvB+mEAl42TAlDZdYmfwPMeAt9+C9+BtgYNUN0fS9AC2A7WiwWwNWiAwQK4CGABfLIALm8dFYC6uv/csKFL4EcB3DiAbWEBVLYUwK09TaADLYABalv/94otAtgS9KkCuBQBDFDXdZlCCXwngNsWwN5DAqjtUKZQAs96C2sSBbA1aIABA/gogO1gnQrgr84KQE3dNAL4kwBu3IEWwAB1Lf/3jg3cg57xFtbTJArg8uCwANS0/lMAHwWwHaznC2DvIQHU9bpMowR+EsCNA7i8cVoAKjpMJIBnvIU1jQ60NWiAqhbfBfBRANvBer4ALl8cF4B6uu8CuAhgAfx8AWwNGqCm5XeXbNwS+NEIuG0BbAsLYNAALgJYAJ8I4I3zAlDNdjIBfCeA23agS7lxXgBqWVyXqfSg5zoEvv02kQJYAAPUDOBDmUoJPNsAnkwB7D0kgHq6/79lo5bAArh5AFuDBsgYwHPdwvo4mQ60NWiAetbPXLNFANvBeq4AFsAAAwdw0BL4TgC3LYBL2TgxAJUcynRK4Dsj4LYFsDVogKEDOGYJfC+AWwewNWiAShYCWACf34Eubx0ZgDq65+/ZoD3oRwHctgAuD44MQB3rEwF8FMC5d7BO/F9YgwaoZFumVAIL4NYBXAQwQB2HSQXwLIfAU+pAl/LGmQEYNoCPAjjzCPjUv4U1aIA6FicDOGYJLIAbF8C+DRqgjquTF23IEvh+hkPgp0kVwNagAepYn75pQ5bAMwzgbxML4JVTA1DBawEsgH+mA10eNk4NQAXXZWI9aAHctgC2hQVQxQs7WDFL4BkG8LQKYAEMUEX3YgAfBXDOJeiX/inKF8cG4HLLMrEAnt97SE9TC2DvIQEMHsARE3h2W1gfJ9aBtgYNIIDtYDUogK1BA9SwffmuDbiGdS+A2xbApdw4NwCXenkJOmQJPLcAvv0kgAEEsAAWwD/qQHsPCaCC7kd3bbwe9Ny+Dfp2cgVw+bpycgAutPxhAMcrgR+NgNsWwNagAS63LtMrgQVw4wK4FAEMcKnrCQbwnQBuHcAbJwfgQocyvQS+NwJu24G2hQUggP0UQ4sCuLx1cgAu050TwNHWsOa1Bn07wQK4PDg6AJdZlwkG8Ly2sJ4EMIAAnkgCP9rBatuB9h4SwKWuBbAA/vkC2Bo0wKUO5123trDS7GB9Pu8/who0wEUWZwbwUQBn2cE67x/CGjTAZbozAzhaCSyAWwfwV4cH4BLrMs0AfjQCbtuBtgYNMFIAHwVwjgA+9x/CGjTARV6XaZbATwK4bQFsDRrgMtdlmiXwfLawbqcawNagAS5w7hK0AM6yg1UEMMAYuvPv2yKAEwTw+QWwNWiASyx/IoBjlcCz2cL6ONEC2BYWwFgBXATw7HewPv9MAG+cH4BfthbAAvgXA9gaNMAFDmWqCXxnCbptB7qUG+cH4FctphvA9/9k735yEom2AA6HkDA26aQGvQqcOGA1Jj1jJ8YN2DB5HRMTzgowbu7lzZ4KCiXUuX++bwt469fn1oG2g5U8AAswwA8CfNYDt6g1LAHOHoB9DwlgvPl5T9yiRuC9AOcOwNagAcYbBNi3kAQYYHp3Ue8ddCMBfq32BjpCgAHGWke9I3Aja9D1DsC+hwQwYYALGoG3XgEnD8C2sADGmp0d4BBgAfZr0AA/9SsqDnAbL4EfK76BjhdHCGCc4fwA7wS41R2sEGCAggMcAtxogDcjAnzjDAGMsoqaR+A3S9DJAbaFBTDSuuoAb70Czr2BFmCAkWZjAhwC3GSAxwzA1qABxlmMeeYWNAILcPIALMAAUwa4nBF4bwcrdwC2Bg0wzhB1j8ACnB7gG6cIYITflQf4TYBzb6Aj7p0igPON28Eq6A66/i2sx9eqB2ABBhhlPjbAOwFubQdr5F9C/HOMAEYEeOxTNwT4Qh4qH4Djj2MEcL7F6ACXMgLvBTg5wLawAEYYBNgO1s9uoONl6RwBnGt2F7XfQT8JcO4AbAsLYEyA11H7CLy1g5U7AAswwMQBDgEWYP8dA8DIAEf9Ad4LcO4NdDzfOEkAZ/r1kwAXcgddeYAfqh+ArUEDnG+I+kfgvR2s3AE4QoABzrWK+kfgugP8KMAAPVo3EODKt7Aa6G/cOkkAkwa4jAJv7WBlB9gaNMCZ5gIswD9dwfrfGrSjBHCexQ8fvGWsYVX9EvithQC/OEoA5xl+GuCdALewBP3TPwPfQwI400qABfgCAY6lswQwbYCLuIOu+iVwAytY1qABzjVbRwsj8NYOVvIAHP8cJoBzzH8e4BDg6gO8EWCAiS2iiQD/9UvQ2QG2Bg1wluECAS7hDnpvByv3BtoaNMB57qKNEfhJgHMHYGvQAGeZraKNEbjel8Al/FcMl/gjiHvHCeCMAK+jjRF4awcrO8B+DRrgDPMQYAG+zB+BNWiA6QNcwB20JejsAD/fOE8AJ1tEKyPwXoBTV7CsQQOcZYhWRuBqA/zaSoCtQQOc7kI7WCWMwLV+Dyl/CfpS/RVggDO0E+CtHazsAFuDBkiYgHcCXGuAL/UnEH8cKIBTzS/28A0vgSsN8MUGYL8GDXC64XIB3gnwKG/NDMDWoAFOdyfA3S9BX+5PIAQY4FTraOcOutI16HZuoK1BA+QEOHsE3gpw8gBsDRrgVLNLBjgEuMIdrEsOwPHsSAGc5tcln77pI7AdrOwAW4MGONHQVID3drByb6AFGOBUvy/6+A0Bri7Am8sG+MaZAjjJKloagd8EOHcAjrh1pgAyApw8Ale5hfW3qQBbgwY4yWWXoAW4viXojQADZJhf+PGbfActwNkDsO8hAZxmcennb/IIvPcKOHcAjucbpwrgBEO0NQILcPIAHC9LpwogJcC5I/CTACcH2K9BA5zi4jtY2QGu7yXw42tTN9AR944VQE6AdwJczw7W5T9+a9AAp5hf4QEcAlxNgK8wAFuDBjjF4hoBTh2Bq9vCemgtwH6MEuAEgwD3vIN1jf5GCDDA9+6itTtoAU4P8NK5AvjWOlobgZ+8Ak5dwbIGDXCK2XUCnDkCbwU4eQC2Bg1wQoCv8wROHYEFODvA1qABvjU0GODKXgI/NHcDHS8OFkBWgEOAK9jB2ggwQJZVtDcCC3DyAOx7SADfW0d7I/BbXQH+22CAb50sgA4DvLWDldxfa9AA35lfL8CJBRbg7ABbgwb4xhAC3G2AN9f77G1hASQGOG8Na28HK3cAFmCA7/wWYAG+RoCXzhbAl1bRYoG3Apx7A20LC+Abs7UAd/sKOAQYIM38qgEOAS44wFcdgOOfwwXwlcVVH8JpI3BNAX5ocgD2PSSALgNc0xbWa5sBfrlxugC+MFz3KRwCXGyAN1cO8NLpAjhutoo2R+AnAc4dgCPuHS+ALwK8jjZH4K0drNwBWIABvg7wtZ/CWSOwAKcH2PeQAL4wbzbAe0vQuTfQ8XzjfAEcNVz9MZx1By3AyQOwNWiA5ADvBLjEHazrf/AhwADHraLVEbiWNejHdgO8dL4Ajlo3G+BqtrCa7a8tLIDjZlMEOAS4vCVoAQZINY9mA/xXgFNXsP63heWAARwzTBLgnDWsSraw3podgAUYQIAtQacE+MYJAzhiFe0WWICTb6Ajbp0wgCPWDQd46xVw7gBsCwvgqNlEAQ4BLirAEw3A8ccRAzhsMdGDOGUEFuDsATieHTGADgNcx0vg15YDbA0a4IhhqidxCHBBAd5MFuAbZwzgoFW0PAILcPIA7NegAY6YbAcrZwSu4iVwywNwxL1DBnDIfMIA7wS4lB2sCQPse0gAhwMcAtxhgCf81P85ZACHLCZ8FCfcQW8reAn80PQAbAsLoIAAJ4zAeztYuQNwvCydMoAD7qLtEfhJgHMHYGvQAAdNuQSdcwdd/ivg1gN875gBpAc4BLiEHaxpP3Nr0ACHAhwC3F2Apx2A/XcMAIfMJw7w5GtY5a9BPzY+AFuDBjhkiNZH4L0drNwBWIABDlkJsABfmwADfLaO1u+gn9xA595A+x4SQBEBnnwELn4Lq/kB2Bo0wGez6QO8E+DcCXjyT9waNMBnw/RP4/AS+J239gP84qAB9BhgO1jJN9ACDPDZKiHAOxNwZoATPnHfQwIoIsDhJXBigDcZn/itkwbwXsIO1vQj8NYSdHaArUEDfDAX4M6WoFP6G/8cNYD3FimP46nvoC1BZwf42VEDKCLAE4/ARW9hPTS/gmUNGuCzIXoYgfd2sHIHYGvQAKUEeNoR+EmAswO8dNYA3ll1EeCtHazcG+iIe2cN4P/lfAtp8jtoAU4egP1/SADFBHgnwBkBDhMwQOcBnnYE3nsFnDsACzDAe/O8AO8EuKcA/8dhA3gX4OgjwE8CnHsD7bcoAT5cQec9kcNL4MlfAecNwH6LEqCYCXjSEViAkwfg+OOwAZQyAU85Am/3ApwbYD8GDVDMBDzpHXSxAX7r4wbaFTRAQRPwToCn3cEKEzCACXjiEViAcwdg74ABCpqApxyB30oNcCcDsCtogJIm4AkDvLWDlRtg3wMGKGgCnrLAApx6A+2nKAE+BHgtwL0sQYcAAwjw9GtY+953sDYCDCDAAjx9gEOAAUoK8Co6KfC29yVoAQYoym8B7mMHK/kG+mXprAG8MyQHeCfAXQzALzfOGsA7i+hlBO77FfBGgAEEOGcE3guwn4IGKMd8LcA9BDj731l+iRLgg+zvIU13B73tOcDZA7BfogT4ZN3LHfS25x2s7A85bp00gA9+RycjsADbwQIoydBNgAt8CfzQyw30i4MG8NGv6OUOuuMAp3/GlqABPsnfwop+A/zayQBsBwvggHUvI/BTea+AXzsZgGPpnAF8MvQS4G23O1jpn7AdLIAD5tFJgbsN8EaAAUo06+UOurw16MdebqC9AgY45C7/Ad3pFtZrJwOwV8AABy0EuOkAhxtoAHfQqQV+6nMJ2g00QKlWnQS4uC2sXlaw3EADFHsHvesxwI+93EA7YgBH9HIH3eMPUW7cQAOUa+hkBN53uIPlS8AABZuvBbjVAOf/2+qPAwZQ8gg8RYze+guwFSz4L3t3lxpJcoUB1GJg3kVDrUPGkPsZBupBOxG1AZH5OCDIHVRRmzM2xjN2/6lbGRH33jhnCTMlvr5f3IwAI/D4EXibbwk6wACsgQaYfgTe5luCNgADGIEFcP8laCfAAEbgAB10rOcYpgjgswIa4NsephiBr5PtYA1fwXr7uz8tgPAldIcR+HWyALaBBZBgBD4J4HI7WMML6Cd/WADfT+ClfgJvcwXwqoAGyODTswCuFcAKaIAcTqMTeKotrJfyA7ANaIAsJfQ+UwDfqg/ACmiAdxu9CT1TAF/KB7ACGuAHSujqHXSgQ+DqDbQCGuBHLMVH4G2iHSwFNECmEvpcewSeKIAHD8C/+WMC+CGDv0XapzkELh7ADoABcpXQ8wTwrXQDrYAG+GGDX2UQwBUG4DcFNEC2Err1CHyfZQlaAQ2ghI40Am+THAGvCmiAfCX0WQALYPkL0N/QC7Fad9BBAvheuIFWQAP8rKGvMsyxhXUrPADLX4CfLqGXuiPwHAGsgAbI6VPdEXibIYBXBTRA1hJaAGfewRoYwN5gAPiYpWoHPUUAK6ABlNDhRuAQAfxSdQBWQAN8uIR+LjoCX+sfActfACV0vBFYACugAUIb+DRw/UPgW80G2hsMAEcYdwzctIN+Lb+DpYAGyG3gdRzVJ+BLyQFYAQ1wVAKXHIEFsEeAAaIb9irDXnwL61ZxAFZAAxQooQVwvgFY/gIcmMDngiPwa+0AVkADKKFjjsD30kfAqwIaoITluVwAbwL4eH/IX4CDS+il3ghcOoAH/e/yBRLA0T7VG4GvhY+AVwU0QBWDngbeBXCeAdgjwAAtLNVG4OEBXG0AdgUWQBODNqELb2FVC+Df/ZEANDHmaeC9bABfijXQCmiAVpZiI3DZAF4V0AClPBQbgcvuYA3JXxvQAO0M+RZpr7qFVSuAXcEB0HIEXkqNwFUDeEQD/fbkzwOgZQKXGoHHbmFdboUGYG8wADQ25FukogFcaQB2AAzQ2lJoBBbAHgEGSGPE08A1D4FfCuWvL5AA2htRQpcM4FudAHYFFkAPpzojcMkAHnAF1qO/CoAORnyL1CirXgseAQ8YgBXQAH0MuI6j4BZWnQBWQAP0cqqSwBUD2BsMAIUtVUbga7kl6O4DsA1ogI4eu4/Ae7kAvhUZgF2BBdBT9xJaAAcdgBXQAH0tNUbggWvQNRpoBTRAZw81RuCt2g6WNxgAqvu1dwIL4IADsDcYAPpbSozAxQLYI8AA9fV+lWGvtYV1KxDACmiAIXpfiLUL4GANtAIaYMwIfCoQwPdSAewRYIA5ErhzCV1pC+uSfwD2BRLAMJ2fBt4FcKQAVkADjBuBT/k76EI3QffNX1dgAYxM4CV7B71d6xwBrwpogGn0LaH3OmvQt+wrWL5AAhir76sMdQ6Bb8kHYAU0wGB9S+gGI/BrmR0sBTTAXAn8nDuANwGsgAZIqWsJXSWAX3I30L5AAohgyT0CX4sEsAIaYDYPuUfga40drI4DsDcYAILo+SpDkS2s1AFsAxogiiVzB/1aYwdLAQ0woZ6vMpTYwrokHoAV0ACBdCyhdwE8dgC2AQ0QySnxCDxgC+ueN4AdAAOE0rGErhDAt7QNtANggGD6vcqwC+CBA7ACGiCaU9oReMt/BLwqoAGm1e9Vhl0AjxqAFdAAAXUroQ/voAWwAhogs1PSBN6u2Y+AVwU0wMy6ldB79i2sW84BWAENENTjc841rOwB3GkAdgUWQFi9LsTKvoWVcwB2AAwQVrcSOncAX1IGsAIaIHICnwVw9wBeFdAAdCqhD17D6hzALxkHYAU0QGxLxhH4mnkHa1VAA9CthN4FcN8Alr8A0fUpoffMh8AJG2gFNED8EfiUr4PeEu9gdRmAXYEFkCGBz+lG4MwB7AAYgP/o8ypD3tugX9IFsAIaIIdTug76mnYHSwENwH91uRBrF8CdAlgBDZBGl03oI2PsNesR8KqABuAvTslG4C1rAHf47/yH/AXIo0cJLYC7BLACGiCVHk8D7znXoC+pGui33/2YAVLpcAy859zCuqUagB0AAyTTo4SePoBXBTQAnyXwswBufRO0R4AB+NynTAm8CWAFNECVEXgRwG13sFYFNABfck60htUtgO95BmAFNEBS7UvohIfAL3kGYAU0QFLtnwbe8wXwLU0Avz35CQNkTeBFALcLYAfAAHxN8xI63xZWmgFYAQ2Q2ek5yQi8pVuC9ggwAF/XvITOFsD3JAGsgAZIrnUJne0Q+CXJAKyABsju1+ccHfQ12Q6W/AXgm1qX0JMG8KqABuDbHnOMwFuuHay2/6pxBRZABW2PgecM4FUBDcD3NC6hdwGsgAbgiwmcYgS+ZlqC9gYDAO/QtoTOFMC3BAOwAhqgzgi8JBiBMwWwAhqA9yXwOX4A3xMdActfAN7nl+fwHXSXLaz4DbQCGqDWCNzyVYY9TQBf4g/AT36sALUSeAk/Anc4BL5HH4AV0ADlfAo/Al+z7GCtCmgA3u8kgI8J4Ib56xFggIJaltBZ1qCDD8AKaICSGpbQe44trEvwFazf/UgBSmq4CT1RAK8KaAB+0BK7g578CFgBDVBWu+s49hRbWLfQDbQ3GADqaldCTxPAzQZgXyABFNZuE3rPsAZ9CzwAK6ABaidw5BG49RbW5RZ3APYIMEBxzb5FyhDAgRtoBTRA9RF4idtBtw7gl7gNtDcYAOon8DnuCHwNfwS8KqAB+EmtvkXaZwhgBTQAPz0Cn8IG8OukAXy2AQ0wRQIvUTvoLfoOVpsG2hdIAJNotAm91w9gBTQAH3EKOgJv19gB3GYA9gYDwDyWoCPwNfYR8KqABuBD2pTQ1QO4zQDsEWCAmbR5lSF0AF9iBrACGmAuS8gRuOkWVsgVLAU0wGQeQ47A98g7WC0G4LffDMAAk2lyDPzhIXO2APYFEsB02lzHEfgQ+B6wgfYGA8CMCXyeK4Bv8QZgbzAATKlFCb3XDWAFNAAHWeIF8Bb2CLjFACx/AebUooTeBbACGoDvaFBClw1gBTQAxzmFW8O6Bj0CPn4APj/6/QFMq0EJvdcMYFdgAXCkX56DBfDrLAHsDQaAuUfgU7AOutUh8AefYji8gfYGA8Dsllgj8BZzB0sBDcDBjn+VoWAArwpoAI52+NPAHxuBQx4BK6ABON4SKoCvEwSwAhqAvzUoocsF8MEN9JsrOAD4l6NL6D3ed0gfW4J2BRYATSyBRuAt3g7W0QPwk18cAP/2eI4zAgcMYG8wANDIwa8yfCiAr8UDWAENwJ+WOB30NdoO1qqABqCVg19l2CsF8LH/NvEFEgB/dXAJHW0NOswArIAG4H9H4FOUAN6CHQEfGsAeAQbg/xP4HKSDjhbArsACoKljnwaOdRv0PcgA7AskAD53CjICX0PtYHmDAYDGHpYYI3DZAFZAA/BFh5bQoQI4xgD8Dz8xAL7oyFcZ9kBbWJcQAayABuBrlggjcKQAXhXQAHTwEGIEPjyAXwIMwN5gAOAbDrwQK1AA3wIEsCuwAPjWCLwE6KCvYQJ4VUAD0CmBz+NH4NcwAayABqCXA0voKFtYl/EDsAIagO9Zho/AYQL4uC+QnvyuAPiO40poAewRYADe77gLsYJsYd1GN9AKaADeMwKfRo/AQQLYFVgA9E3gZfAI/BoigP/J3t2kNpKkYQDGGGpdxYDO4dnkYm7TNGihmwhdwKSWBYa8QQpdbuhmBrqrLSvjPzLzeY5gGV6+N76MGH2BBEBd2TahIwP43sUR8KiABqCyXK8yTD1sYV3aNtAKaAAWy1ZC93AZ5aXpAKyABiDAa9sROOsW1r3pAPy7fyYAAnxrOgLPHexgKaABaCBXCd1BALfMXwU0AKEJfGrYQd83EsDeYAAgOIAzfYvUfA360nAFyxdIAIQbGo7AzQNYAQ1Asxn4tIkAvjcLYPkLQJQ8JXTrLaxbswb653f/QwDEjMCHZiNw6wD2CDAALRP4P61G4GvbJejRBjQALWUpoaemAXxpNQDbgAYgfgQ+CGBXYAHQIIGHRh10tgA+t2mgbUADkCRHCR0xAl/nljtYCmgAmju0GYFbBvCogAaguRwldEQAv+c6Am4SwApoAJLlKKHbbWFdmuSvR4AB6CKBdxbACmgAMshQQk/NAvjcYAVLAQ1AngRuMQLPrXawkgdgV2ABkMnhJIB9gQRAfUP9Dvq91RK0AhqAbrzUH4GvjXawRgU0AP1I3oSe1hLACmgAehqBh+od9LzKAP6QvwBkdaydwHOTHSwFNAB9SS2h9xHACmgAcjtUXsPKEsCVV7BcgQVAdi/HuiPwtcURsC+QAOjO60kAK6ABqO9QtYPOEcD3qg20AhqAIhK/RZrqHwLfag7ACmgACknchO4+gNMGYI8AA9BnAk+bDmAHwAAUk1ZCT7UPgS8V81cBDUDJBD7V66BXFcCuwAKgqKQSeqocwOd6K1gKaADKjsBDtRH4OtcN4KQB+M2/BgBlE/hYrYOe6+5gjQpoADqWUkKHddDvdQNYAQ1A14ZqHXTVHayUAfiH/woAiks5Bp76DWAFNACdSyih+w3gUQENQO8OdUbg1DXoc50A9gYDAJUkbEJPFdegb1UaaFdgAVBNwtPAnQZw/ADsDQYA6jmcagTwe70jYAU0AGuQsAldbQurSgAroAGo6vW0qQCObqD/bQAGoKpvpwprWEkBfK8wACugAagsvoSutYV1Kz8AK6ABqO5HhRG48wB2BRYADcReiBUQwPeUAC4/ALsCC4AGokvoOltYl/ID8Jt/AgBaJPCx9AhcKYAV0ACsSuy3SFXWoG+lB2AFNACtRuChdADP/QawR4ABaJfAx8IddJUA9gUSAGsTWULXWIO+lR2AFdAAtHQoOwJfK+xguQILgPWJPAbuKIBHBTQAKxR3HUf5AD4XDWCPAAPQWtTTwFPxLaxbyQZaAQ1Ac3EldDcBPCqgAVin15Ij8HvsEfCt4AD8mwEYgA5EPQ1c+BD4UrCB9gUSAF2IKqE7CeBRAQ3AehP4VKyDvs5lA9gbDACsWMy3SGW3sO7FBmAFNAD9GIqNwHPRJWgFNACrFvEqQ9kALtVAK6AB6EpECV1yC+tSqoFWQAPQl6HQCFw0gMOvwFJAA9CZY6ERuGAAhw/A8heA3oSX0AUPgW9lBmBvMADQn6FMAncUwMc3vzIA3Qm/EKtxAI++QAJgC4JfZVi0hnUv9hWSDWgAtiH4aeBSa9CXEgOwR4AB6NXQSQDfCwSwAhqAboVuQk+FvkM652+gPxTQAPQr9GngQltYt/wDsPwFoGdD/hG4UAAHDsBvflsAOvbjlD2Ar2V2sLzBAMCWBB4DNwtgBTQA2zLkHoE7CGAb0AB07yX3CHydCyxBjwpoADYm7EKsqcAW1i3zAKyABmANI/CwsQB2BRYA63DM20G/5z8CHh0AA7A9QSX0lH0L65J3APYIMAAr8RL0KkODAB4V0ABsMoGHrAE8516CVkADsE2vWUfgOfcOlg1oADbq0HMAjwpoALZqyLiG9Z75CFgBDcBmhdwJnXkLK98A/GEDGoC1CdiEzhvAl3wB7AAYgPUZ8nXQQQF8zzcAv/kVAVidl2O2EXjOuoPlDQYANm35MfBUM4AV0ABs3JBrBL5n3MEaFdAAbNzyEjrjFtYlUwAroAFYrcUl9FQvgBXQAGzfkGcEvua7CXrxACx/AVixY54ReM62g+UKLAD2YOmrDLUCeFRAA7ALhywddO0A9gYDACu39GngKdMh8CVHA62ABmD1lm5CVwngUQENwF4cMozAuQJYAQ3AfgwZOug5zxGwAhqA/VhYQlcI4NEVWADsyLdT8gi8NIAvt+QB+Od3vxgA2zAkj8DXHE8xjApoAHbl5VQrgC/JASx/AdiORcfAU+EAHn2BBMDeDKkj8Jy+g7UkgI9vfisANuQldQTOEMA2oAHYn0WvMhQN4FEBDcAOR+BDWgDfk5egR1dgAbDHBD4mddDX5B0sG9AA7NKSErpgAI8KaAD26ZA0AqceASugAdipBU8DT4lbWLeEAdgVWABs1ILrOKZ2AewLJAC26pAQwNe0pxgU0ADs2BC/hnVN2sEaFdAA7NjzTeipTAD7AgmAXTucojvopCNgBTQA+zZEd9ALtrDOsQ20AhqAjXuJHoHnhAnYGwwA7N3Tb5HiD4EfLkGPrsACYPcj8FAugGMH4Dc/CwDbT+BjXAddLIAV0ADswrMSOjqAz3ENtAIagH0Y4kbgOXYHyxdIAPCHY9QIHBvAoys4AOAPT0roBwH8HnkEPCqgAeBPh5gO+v5sAo5poBXQAOzJEDECX+Mm4NEVWADwP1+X0J+PwNcnh8D3iAHYF0gA7MuXrzJMUVtYt/ABWAENwM58fSHWVCeAFdAA7C+BT7kDOLiBdgUWADv0ZQkdswYdPAD//O5XAGB/I/AQGsDXiCVoBTQA/JLAwSNwxBK0AhoAfvF6yhnAt8AB2BVYAOx1BB4C17DmjAH88cMPAMBeE/gYNgIHB/CogAaAf/riQqzgLaywHWgFNAB7dgjqoK+BS9CjK7AA4FPHkBH4qwA+BwWwL5AA2LfHJfQUdgh8C1nBUkADsHePL8QKew/pFjAAK6AB2L3H3yIlT8CjK7AA4JGH13FMIYfAl4AG+jcDMAA8LqETA3h0AAwAjz0soae0AFZAA8CXCbx8BJ6XHwE/GIA/fvcHB4A/fTvVC2AFNAD8fwQelnbQAQGsgAaAZwl8XDgCvy8+Ah69wQAAzzy4EGtavIW1cABWQAPAXw1pAXxZFsAeAQaAv3lQQv8jVx8E8H1Z/iqgAeDvPi+hp4VbWLdFAayABoBfR+DDohF4YQB/uoJ1fPNnBoBfE3hYMgLfl+1geQQYABb6tISeFm1hXZYEsAIaAD4bgT99lSEqgEePAAPA4gQeFozAi46AXYEFAMv9a8EIPC8I4FEBDQABPiuhIwJY/gJAiM9K6On5bdCXpwH88eaPCwCPE/jpCHx9voM1ugILAML8l727S20biMIASvAKSkFL0X5KwVCvpCEbcEaPhYCyAolsroltOfoZSZY90tM5S/DLx/3myjfyDFwuDWAFNAAslc+MwLEAfp4bgG1AA8C0H/uZDrqa28EKCmgAWGxYQpfLAlgBDQDLRa4yzKxBd5eggwIaAO5J4P3kCHyc2cGSvwBwl0EJXU5vYU0H8G8/KADcJJ/qoGcC2BFgALjT4A+xysktrHoigBXQAHCzQQl9cwAHG9AAcLdsYgQeBPDEAOwIMAAs0C+hy4lH4IknYAU0ACzy4zDaQU8FcLeBflNAA8AyvdPArRG4qMYD2AMwADwmHx2Bx3ewgiPAAPCY3ib0+BZWPTYAewAGgIQJfGMAK6AB4B75SAAXY0/AwQY0ADysuwldzgewI8AAkEC3hB4J4Of4AKyABoA7df+OY2QNuo4GsA1oALg/gffRDrqKB7AHYABIY3eIjcDxAA6OAANAohE4i43A7UfglzoyALvBAACPJXAeGYGL2BJ0UEADQDLtTehbA9gGNAA8Kot00LGvkBTQAJBQu4SObGHVgwFYAQ0ACbRK6HI8gG1AA0Ba36eBmwA+Dp+AFdAAkFje76CLQQAHBTQAJPazPwIPA9gRYABYMYEvAVz1lqCDL5AAILnvTeiyt4VVdwdgNxgAIGUCH24KYEeAASCpawndC+BuA62ABoC0I3DWGYGL7g5WMwDLXwBInMD79gjcDeDgCyQAWElzGrjzb9Af7QBWQANAenm7g65aO1iX/P0nfwEgveZbpJEAVkADwCoum9BlK4BbK1huMADAOrLvEbho7WC5wQAAq8pjAayABoB1nTehy+sa9PM1gP0FFgCs53wa+BrAdbOC5QskAFhT3ozAVRPACmgAWN2phL4G8GUAfvtlAAaAVZ2+RfoM3uNlBysooAFgfae/4yjPa9Av5wbaEWAAWD+BzyNwcV6CDo4AA8Amvp6Bz4/A9WkAVkADwBYjcHYagZsAdgQYALZJ4P01gIMCGgC2sju8l6/Hrx0sBTQAbCf7HIGLzwAOjgADwIb2lwD2F1gAsKHdoXytPoIjwACwpafs/fVvHRwBBoBtEzgvq1oBDQAb2x2K4AskANha9kcBDQCbe8oV0AAAAAAAAAAAAAAAAAAAAAAAAAAAAAAAAAAAAAAAAAAAAAAAAAAAAAAAAAAAAAAAAAAAAAAAAAAAAAAAAAAAAAAAAAAAAAAAAAAAAAAAAAAAAAAAAAAAAAAAAAAAAAAAAAAAAAAAAAAAAAAAAAAAAAAAAAAAAAAAAAAAAAAAAAAAAAAAAAAAAAAAAAAAAAAAAAAAAAAAAAAAAAAAAAAAAAAAAAAAAAAAAAAAAAAAAAAAAAAAAAAAAAAAAAAAAAAAAAAAAAAAAAAAAAAAAAAAAAAAAAAAAAAAAAAAAAAAAAAAAAAAAAAAAAAAAAAAAAAAAAAAAAAAAAAAAAAAAAAAAAAAAAAAAAAAAAAAAAAAAAAAAAAAAAAAAAAAAAAAAAAAAAAAAAAAAAAAAAAAAAAAAAAAAAAAAAAAAAAAAAAAAAAAAAAA8J+9u1lqW0nDABzCDVhoLmBimzrb2M7UrI9jF+thrNJ9pKLq2x8LApMfCKL1102ep9hwFsdGDv3y6mtJAAAAAAAAAAAAAAAAAAAAAAAAAAAAAAAAAAAAAAAAAAAAAAAAAAAAAAAAAAAAAAAAAAAAAAAAAAAAAAAAAAAAAAAAAAAAAAAAAAAAAABA2i5axYNFy0EBgDGTt9hsylVr+eDuu2JTiGEAGNyi2JS73V3urg+tOnxz9935P2+3u92mKBwqABgqfItyt10eDseqqur6/HX2kL+haZ3/a3Vqc1gGA8AQLopz9q7XbfiGUDfht+5DeLUpFg4cAMSHb9t81+3p5jp01ITmvgg7fAAQ2X3bee+xCq/U3BXhnRoMADHpe9994zSnfXsq2oEEgNfEb7lcH0NPp70IBoDu8Vtu14djHXqrDoelCAaALtpdz4cB0vdbBu+XOxEMAC/F77n9VoPFb3uVcHVYbRaTFPdOer1CselkMfmn1pF/3wl+KgtHCnj37eTzgPH7sB9rtZngve9Wuy56rHeXy30nky+p22U3H/0TT+9T8aEAbfzulscwhq8TnIe+OnRx7JOO7zv+xTH1knrxV7crtL9+8I98wk/lusunUjc+FOBdUa6PVT1KAIfqtBy7BL+vq6bDenfqkY6Xdc4BHARwggEcgg8FLBflcj1S+j6chx63BF91DKE+AXzT7fKrVANY2UowgH0ooP5ux4zf+1xabRbzB/CX8Rtwn4zXgDVg4E+rv4dq5PwNTbX/MGICT9GAMw9gZUsDBv68+ntvzO3Q7zVgDVgDBvJaKIrtsZkmgEOz34xVgjVgZUsDBvJaJ3brY5hKuxdrpAQ2A9aANWAgJ+VUp5//vxdrnN3Q6TRgu6DRgIEXFcvjtPkbqpES2AxYA9aAgXzWiHLC08/f3RdrjK1YZsDKlgYMZLNEXE18+nnMrVhmwBqwBgxkotgeZ8nfEKrb4TuwBqxsacBAJvm7PITZDL8Z2gxYA9aAgUz6bx1mdPowcALbBa1sacBADmbZfvXjZuhhE9gMWAPWgIEs8nfW/nt3T45hE9gMWNnSgAH520V9+DBkApsBa8AaMJBB/t6E+TWHITuwBqxsacBA+vkb0jBkApsBa8AaMJB6/l5XiQRwcxruemC7oJUtDRhIvf/WIRUD3hPLDFgD1oCBxPO3CQkZ7J5YZsDKlgYMpKyY+frfJzrwpAGsAaMBA7Pk77IO4U0msAasbGnAQMKLwja1/A2hGmYrtBmwBqwBAwnn7zGkZ5hbYtkFrWxpwECykszf9sEM0wWwBowGDEyuTDN/QzPEVmgzYGVLAwZSzd+ELgAefiOWGbAGrAEDaSrWIVnN54UGrAFrwMDbXA8+1ekGcKh6L0NmwBqwBgwkKdENWI93xOq7DtkFrWxpwECKypuQtn3R7wc0A9aANWAgQZfrOvEA7jsGNgNWtjRgIMHFYJt6/p5zq9/9OMyANWANGEhvLbhKP39D2PcKLg1Y2dKAgeSU1xnkb2j2fSqwGbAGrAEDyS0F6xwK8DmBV2+iAdsFjQYM3K8E2zzy91xPe9wQywxYA9aAgcRcHTPJ314noc2AlS0NGEjL5Tpko8cNscyANWANGEjL9iafAO4xP9WAlS0NGEjKVU75G0L07TjMgDVgDRjIcRlIZgwcux7ZBa1sacBASqtANjugH9aj28gKbAasAWvAQELKY8hME3lHSjNgZUsDBhJaBNYhO5FncM2ANWANGEhHVjugH+8JHVWBNWBlSwMGknGZY/5GLklmwBqwBgwkswR8qnMM4BC1D8suaGVLAwZSUWZZgCND0gxYA9aAgWQKcMg0gGOeyWAGrGxpwEAitje5BvAi4qc1A9aANWAgDZfXmeZv+Bzz42rAypYGDCRSgOtM8zduSTID1oA1YCAJ+d0Dq9cZaLuglS0NGEjj1z/XHVixD0QyA9aANWAgBZfZFuDIFckMWNnSgAEFuI8qLr/MgDVgDRhIwPubbAM48nmEGrCypQEDCvDkFyGZAWvAGjCQgquxC3Dz8BWGvtgpthHYBa1sacBANn98R41ozw7fOZ2/rwdM4biLkMyANWANGEihAI9zD466jd79crncfWd7/n59OAyWwrexP7MZsLKlAQNvsAC32XuO2tVuUxTFD692/v6cw99iuJ7rDLQZsAasAQOzez/4XLZN39WuWLT/98VTL7l4tyjK3TmDjz0zODq9NGBlSwMG5v7NH3gLdHXYr3bn9F28+MJtFz6HcNXjxb7E/tRmwBqwBgzMXYCH3ALdnM7dd7N4xbqz27Y9eOKLkOyCVrY0YGD+AlwPee55uenQfX94/YuiXK4jI7j5Z/SfHRqwBqwBA7Mqb4Zrv+3gN+Y9FLvtMupM9GkR+2ObAStbGjAwr0/DnXxebeLfRrGNGQbHPQnpFQGsAaMBA+O4HKgAV+f4Lfq8kaIol8fXng2PX400YGVLAwbeQAFuDsvdou9buSi3r4zgyCchtcyANWANGMjh1/6FINyvFoO8nfJ1o+Db+Fe1C1rZ0oCBOQ1yF8rTcrMY6P287jz05x4/eBg9HTVgNGBgzAI8WP39FlvbddcS3CchrkIT6he//ugAVrY0YGA8A9yFstpvLoZdicr1seOAtkfwvz8eD6eXv/Y9XkIDRgMGnrPuf/q5z7VHzyi3607Z9d8+692umz84gJUtDRgYTe+bcDSHQU8/P7rqcho69bVIA0YDBp7R9xqkZv+hGOWNLcrly6ehvy7SPrp2QaMBA88kxF/98vfrfjNaBpbbw0v5dZv64dWA0YCBJ1317b+bMd/diwmc+lJkBowGDPT6m3ue/G13Q9fjPAlJAGvAGjAwp37XIFUj5+95Sfr9Vqz4JyH94QH8TgPWgIF5ferXfyfIjd924M+pH99kA/jfGrAGDMyaDzcJn3/ukMDJr0Sp7oLuGsDKlgYMjKPPbaAnyt9ziD17Fnr64qgBowEDQ+izBWuq/P1NB75N/gDnHsDKlgYMjJNsPc5A324mfJ/PJPDfAlgD1oCBHP2jx/2fJ10ELp9M4K+b5I+wBowGDMT/wf1UYoxz/+fnO/B1PeyTkASwBqwBA7OJ34I1df62j2ao87sIyS5oNGDgKdEXATd9HpEbm8DHHNchDRgNGPj11/2YwwasR9tjZk9CegsBrGxpwMAYnTKPDViPq9PPCXwrgDVgDRjI0Tr2BPRqpuXpU53dMqQBowEDv/y238QOgD/O9I5/vBip+ZjBQdaA0YCBn8XugT7Nd/Xt5TqzM9B2QTNCA/7boYLMRV4EPOuS/P1W6M85HGQNmOEbsACGzEU+CGmOK5C+W6G2N3l1MzNgBDDwk8jbUH6Z9/aPF49j4C8fczjKGjDDB/B/HCrI+3f9X5ncAuvnRLvO5klIGjACGHgiGeLuwjHrCei7NerbGDiTjSgaMAIY+FHcXTim36376yJ1fzVwBk9CekUA2wWNAIY/5lc97j7Qc5+Avsu0dSZPQvofe+eSFLeShlELNlAqeQFYJYIpJeHoaSOkqHFjKWofbhS1/VaB3cYXG/TnS/k4Jxxx78g4E6VOfn8+RAIGBAwAb8WgtAf68daHf/tzEfohkH5mDRgQMAD8JjGVWzh8iUP1MRgxkIABAQPAb9wFuQPrp9WqIL6ERAIGBAwAb0a6SgXan31P24MvcwESMCBgABAZTKUC/eCP9O5C8QK7oAEBA8BrVG7h8OAI0i+vBRKAScCAgAHgt4F+E85XgMOGNWBAwADwiguFJeBADt4iYBIwAgYAf1H4EANRiAQMCBgAdMf5VwIwAiYBI2AAcG+FngDsl4DZBQ0IGCAJLhQuoSQAk4ABAQOAJgrXYPEeTlPAJGAEDAAmh3nPCjACJgEjYADwVQqvuafXSMCAgAFAE/k9lO79gIBJwAgYAQNEx7V4C/QDnWZXwOyCBgQMkMIovyEAk4BJwAgYAJyzFd9DGcq3/xAwCRgBA4DHiA8h8RImAQMCBgB9xBVoLuEgAQMCBgB9JUgr0BNnkEjAgIABQJuLI1uwvBMwu6DXUt6nfKbI9z//nPm0iUzAWXZu1rmB5/9uNoxLgJUQf4qQM0gk4Ejtm+VNU+/Ksu2qn3/KmabYr2MpGwKepxhFU5d1Wc2ta8tduds1DRIG8HqSTRESAUecgLPZSrN5y7bq+m58XYvouq5t27Ksz5oKXcDzDKM+q7frhvP9s9Np6Of2lis1DwAjSJeAv9NnJODYgm/elGU3Hqe/zjumY3+Oi+d6dLgCPjez6o9n8f6T4zi4bx5A8kg/Rcg2WBJwXDzLt5v1+1HTxzkNt7vGYU40KuCsmZvZj+82r9zticEA7pAuAT8xQEnA8YTfvDiHwtO0dPo5DV3Z7F3lRIMCfg6/HzdzjvmUogF8m2P/2oLF6HQgYHZBO9JvXfXjJBoA4zi0O0eOMibgLK+7Re2cjuMwK5iBCuBkiB+oQJOAk0zAWVGXXS//FOc8COacuHehYFMCPs8zljd0Dvk7FAzggEL4AuIWrLQFHM0E7Fx77k/KPDlJwWYEnBfilg47UjCAfWqhgDkETAKOwr/n2vNRXcCncWztx0QjAj5Xn8UZf+wIwQDWES4BP13RZS4EPJGA7eq37HTs+6MQXdreEW1CwIVi0B+oQwPYnmLfUIF+1Rv5MuwL+PQl10T6i0ooAeeFTvH5tYJth2B9AedFpV5m3+03vCIB7FHI9mBNcVegL6t2AV2p8VpaKuBWF6ko00nARdmZ8e/cG0O791rAWa2T9If2CwYGsMdn2fB82kfdG9tFnXD8fmtfwNrsSMB/1m9T9uZ6eXpqbZahdQVc1L3fER8gab5yDaVYwFo7pJwJWFqrSCMBZ7pKejsdGyymRE0B53dH3cdtwsAA1pDtwYq8Ar1UwCTgYP1bV73pjp660pqj9ARsZKnbcpEdIGGEX2KI/UvAJOCoE7D5+PujT6wZWEvARXkw0rx2v+FNCWCBC5kOYr+F44IEHHECzopqtNP7Y2tpYOgIOKsMNXYcyMAANhB+ieE+8u4gAUecgPO6stb3tuq0GgI2lX9ftmKRgQHMcycbiFcImAQc6O+2qA8We3tqrVSh1QWc1yYftMc9BgZYa3wnUoGOKQFPJODf/Vv1VnveThVaWcBZPRp9mga+wQJgGqENor8HmjXgSBNwZrH8/P+dWLcW/t2KAs5M7zajCg2wlnDiuQQpnQTMGvBrH217F1Me84pSFfDWfLn9kZ1YAGapZbdwRD8HZg04ygSsdx/j8p1YO/P/cjUBFzbyPueBAcwiWwL+Fn1/kIBjTMCWTv/+4bkwnoHVBKzx/QUMDOAsGYgKVdN99B3CGnCECTi/Gx11+akzrSglAWd3dlo32TrtDICAreY+ErBrAbML+mccLHtX/p0VZXiMKAnYWuB/YiMWgEHfiGTwPYEOIQHHloCL8nhyx/RgVlEqAhZ+YRQDA6zDnejd9BB/h7AGHFsCLqrx5BLD52UVBJxVFucXXEoJYAzRtwijvwbrE2vA0SXgojqe3GL2tI5cwFlts8UTG7EATHEjKj8lUH0iAceVgPPq5FrAJ6NFaLmAiz6g5gEkTC5aLEphCyRrwFEl4LzqT84xOkMRCzi7tvx8jTtenABGdCMS8H0KPUICjigBG/we0FpFaKmA7RagLdTYAdIVsGSwprAEzBpwTAk4uzuu4V+jO6GlAi4cTDk4DQxgAtF5/eE2gR7hHHA8CTir+9M6GNwJLRRw5mLP2RNFaAADiC6i/JZCj7AGHE0CzurDSv49TeY+2ykUcO3k4XqiCA3gbHCnswTMGnA8CXi7Vv412kcyAV9eu2kfRWgAbUQqmJL4IDdrwLEk4KI7ridgrQdEXcDOFr0pQgO4ss2PV0oSk14ScCQzsaI6rYqpThIJ2MUOrIQ2hAD4YJsfAqZLSMDBJOCsOq4rYFPzVZGA75w1b3rg9Qmgxx0jjgQcZQLO6pX9aywCSwS8Pbhr3tMX3p8ALsZ2SgOONeAYnoTMpYr+1k0bp4P0P9I9lezDAlj3NXVw/z4hAXMO2MFvsV/dv6a6SSDg7THA9gGkisgEj2n0CWvAESTgtTdgmZyyLhdw5rjV5s46A6SIaBN0IpsuWAMOP/qsvgHL5CrwcgFvjyG2DyBVRJugr5iUkICDSMDr3UBpYyP0YgG7XQF+jsDchwWgjqRkNd2m0Sck4OATsLvDsC4i4lKv3l+4j/18GRhAnRvJwftExhprwKEn4MvKF/8aWSVdnIC/um8ft3EAqA/tA5NdEnBsCdiXBWBTU5WlAn5cIfdPRGAAJwK+T6RTWAMOOwFnW3/8a2Tn4uKl3TXaPbAKDKCIaK3sKpFO4Rxw2Am46D3yr9ZjIhXwOjMMIjCAomuOTt8kUQmYBOxpAK58CsAm5ip+C5gIDKCI5CboZA7dswYcdAKuj34JSv8kkt8CPvFNBgA1/iUYZ99S6RTWgENOwH4VoM8J8SpyAadyOgLANJJTSKnswSIBh5yAPTqBZCwhei5gboQGUBvZNwwzZQGTgH3EtwK0ibUbzwVs7LvHAGlxKdgEncweLBJwwLMx7wrQJo4P+C5gIjCAkmqOTHPfwhpwsAnYT1U9RNmqFPdnAqyQ9V58Q6+El4BTOwfs1RUcv54UTT95L+DpincpgJjPHDZQFzAJ2L8CtJ+m0u0t7wXMZRwACggub09onYc14ECfhuzOUz9pnuDzX8CpfCgNwCTXDLE/wBpwoAl423vqJ839E/4LWPycAcClYGDrrmORgEnAtvE1AOvOVwIQMCeRAMQa6Blh6gImAfvG56OvftLbQBGAgDmJBCCutQpeWAmdNCABB/q+FX3bK6BzOiEImAuhAaQCFoywe7qFBOz7LugbX/003uo0KwABJ3RPD8AKAr5Kp1s4BxxqxdHbReCTVn+FIOCUZugARpAcA05ogssacKgJ+OLoq560DsoGIWBuwwKQjWtBYEipwsQacKgJOPN2EVjrEEEQAuY2LABr4zql+S1rwKEm4KzyVk+3jgbqenAUGMBWXkhpkyMJONhTJ1tv9aTTYWEImBo0gC0Bp7TFgjXgUBOwu36V6yl6AVODBrD1tvo3AiYB+5+AjalqOo7nP5OxX4TORTZhCPjEUWAAOxZIanbLGnCwCVi0sf9Pz/k4dF1XVVX5g7Ztu64fDRh9H72AE7qtFsBA0ltugaSO2XMOONgErPNB4Gkch6Esd7t9PpO9kOdFsyurftR18KSxiBOIgLmOEkBAvXxsDSlNblkDDjcBZzeKHTV2bVk3TTGr9x9/5SYviqYuK00F/zd6Aet+dREgKQTHgJP62IlHCXjoO60/g1SUoSdgySeuf7Vm6LpyDr7v/b15U3a9zrRJYwiFImA+iQSwnGsn0/fw8GgNuC01ka48hp6AVWrQY1c2+eZN8n2j4LzWScFPV9ELmH3QAMu5objkewK+2uiRS/9hwSfgy4NQGnP2bRZ205yCK/UQrL4IbE3A0zAMo8HVEPZBA1gQ8JTUTeserQE7jxTBJ2DZF5HGrt1tRM9GpVyHVreTcQFP49g9cy6SvPzfaELE3MUBsHhYL88KT0ntb/QpAXsqYI83vEq+iDSca8+yQZPXvXM7GRbwNMzibZrnzd4vFM2c7TsDBr7ltQpgvFiX1sc+/VkDdr+oFn4CXvxFpHPxWeFwblYrlqEH5efFpIDPu73L5u2Gs1nCcxjuNf92vkkIsJBCIOCkSksk4JAT8NLCzigsPr8aOIoGVv5lmhPwOLS7/V+bnTel5p0j1KABlnpm+Wvke1odwxpwwAl42Uc2p+6DY0fv/QRFAyv3mSkBz5m/ebfV2fmwlU4lOq1SGQACJgGTgH9jwQrCNCjH35dfn9J5JOVdWGYEPHblgkZnddVxGRaAdQS7VdK64oY14KB35V0cPvavln6fDXx0WJ81IuChXRb5s6zWuHDkkfcqwCKW3xk0pXW+jwQcdNL5UFdD2Wx0f0hRKdRnVxTw9N7a7z9/XFMdVH8Ol2EBGH3XpldYYg047HNpnz9aCL018ZDIY+Kk+nO1BTx1rWi/92Wluh2aGjTAMm7svzlIwCTgFX5/h/d3X+VGfkp9cCYnXQFP7RdZm89laC7DArBZqUPAf4E14LAT8HtP9lO53xj6KXfSCKy8kqMpYJWSu/J9IxxEAjAs4MS+tE0CDrzSeP3OTiRzc8lLsRZVdyjpCXhoVYavagbmIBLAovfH/9i7u+S2cSwMw2Y8C7AsLyBR5PKtLScLaFsqX3cil/aRWMXtj52Z7k7HPwFIgAKJ5527TFXLogC+/HDAA304+glYDbjYH/C1q7tNtPz8/4+JVVTXt/l6Cbjrd57Fr7EfZsgCY+TdnWUlCXiSCfiVZ8v9+mPSgRy9CN31QbaHgPfdX3huFp0ysCIwECLg8LvHzUldV0YNeNwJ+GVh7b+k/qOPIw31cJXy+wQNoO1Vj8vYqeGXIjCQLudV+FArAY/9bZMXe8zcXCVXQ+Qqbder1l3AN73eeJ53+dzKdmwC3fjPAE1sJy1gNeBieeHyPtxcpf+cWDPeDvMxP71+1HMmdFmEfu/eCvyWMwKWgCeagJ+vDe9vZlmGStwibceWrl0FvO2b+ZvTDovQisBAUgFX9kyrBjz2BPxsDTpL/o1X45dBPuXv9ef+e866lIF1owR+P7UizmK4rOvSSMCj7zj4yzPU/U2uIRwXETu6qZuAtyl+o+P4RWhvAgO/J3xS3xOwGvC4EvC/X0TKtP4c78aObuok4O2HJEl0Fd/yWjtoIOGk3hKwBDyym+z5v1pBXWUcLDGC6lhS6CLgbaJ3npv4Y5++HgFINqlre7NPDXj0CfjnIvA+62vsxxcxbhpMwPtkPUfm0Q2xvh0B+M2NY0PAEvBkE/A/JyLtc+bfJ9XHROA/BhJwwkX3mM0idmEBgQoIf7Ct7b0CNeDxJ+C/jxrZZ9t/1SUhDiTgpA8dTew+LEVggIAl4IoT8F9F4P2Xq4E+Kaw82ikcRgt4m/RLR0fgP44AvK0A8+k11IDHn4D/2hx1czXUJ2Ws5sQKeJv212liq8B2YQFpLFOjgCXgCSTgH9bYrz8M9ElZXyiIFPA+7aFPkWVu5zEASQVcW0lHDXgCCfiHtB6uhvikT4UJ+Evqt55jI7BWHEAyAQ+/DioBS8ApfsVt6ijYa7x0byoXJ+Bt+t8mtgpc2x0DyHfXeKhtOqkBTyABH73bPQy0ezBiP2M3NUUJeP8xwzeMXIO2Cwt4m5UFJQl4ygm4Wd6eDPRJ55nLOVECztF2JLYd1lBXHhgr4atKD7XNJjXgKSTg5nSwB8ezzNkwRsB5Xrt6FxeBtwQMvDmnwwVcXWMbCVivhTg9ZX6nPkLAmX6Y2H3YlwYF8BZLAn71fqoGPIEEPOTT7EXeBeJw/WXre30WJ+D3BgWQ5pG2ut7qErAEHMfnvK/Ihk/WbH2/Io9kuDUmgDQC/k7AasAS8JsjZpd1OSl4su7zvXcVdehTe2NMAG/N6TsCloAl4KHzYacdjcECznjwYtS5x04kBFIJuLrOrmrAEnDkbArOh/ucAs75xn5cN6zq3pwAcs2n6uo5ErAEHEnwlsZO+4NDBfyliK/YDtUDFBivgINXlPbVtbVRA5aA8wyZzAL+M+u6UMwa9F4vLCCNgKu710rABkWsnbLOpiIEfBy1Bu1EQiCBAWq816oBS8C5ptN4BdxEnchgFxbwVsoLFvCDBCwBeypLo8h2f5vxv55VwDEHmFbYvQfIlICr20+hBuypLFc8HLGAo9agHQkMpEnA1U0lCVgCjiW4VeN4BXwUdSiiAQIkEXB1i0lqwBJwpjHT7VWhQgQc1Q/aNmiAgCVgCXgQAYfOpy67kwoR8OkdAQNJWBFwXwGrAeMfR26mL+CIQ5+8hwS8xafw9vH1rQ5IwBJwJkeOWcBRReBOxz4BtQg4fD9jdddGDVgCjib0RMIu7+eUIuCYAxm2l8YE0Pd+IQFLwBJwAGcZKzqlCDjqRaT3xgTQX8Bfqrs2asASMAG/BAEDSTgnYAlYAk44aHb5Rk0pAm5iTkQyQoAECfimumujBiwBx/+igemwy0F9xSTg0wgB354YFMArXBwgATcDIgFLwIMyv8v36FKMgGPaQdsGDSQQ8G2qjzxeDMjHHtNfDVgCzjajRi3g4Ledq+wfAKQXcLqsE3WaSl/6TH8JWAIm4D5/yI8hcmlMAOUk4OBufSnocxyaGrAEnG9GjVnAMe2gCRhIkIDrE7AELAHHE7qtsUOT5HIEHLGKZYgACRJwsnl0PKSAB1iCVgPGTwQ2d92PWsAxrTgMEeAVZnfDP8hKwBLwhDmtQcAx5zHcGhPAy1yHCziZA9SAowVcbA1477S5jgIe9xJ0RP+ACnvYAukTcDIHHEvA00nABNxVwB0sWZCAPxEw0JurqS9BqwFnFbDz1p8R2omjw0G5BQk44kCkB2MC6He3qHIJWgKWgDv8pFUIOPzGoRMH0D8Bt5fJ7lBqwLHXQg14PDRVCLiJEPCVQQG8SMQmrGQCloCnk4AtQVcq4Ij3F+2UB15hMXUBqwFLwANTh4DDm1EaI0BBArYLmoCnnIAvqhBwxDZoLwIDlSZgNWACHljAgZb8Pm4BR2yD/mpQAAQsAScXsBrwcwIt2eGc3JIEHLGO9d2YAIoRsF7Q0xGwBFyrgCO2QevEAUjAEjABD2GmUAHn+0//WdDX7DkHAQL+catNNovUgKMFrAY8Ij4RcLonVICA0/azsQt6OglYDbhWAUdsg354b1AA/QTcoWRVQgJWA5aACTgHp8FzcPj1G2AkAt5NXMASMAETcA7ehU9CAgZeZB0sw20yAesFHX0t1IAJuDQBH4dPQoMEKEbAEvB0ErB7a70CviNggIDVgCVgAh5cwM1GL0pgfAK2C5qACXj8Ag5/Dynd/hGAgMeUgNWACZiAs/A5eBLeEDBAwBJwagEr79Ur4DMJGBifgPWCno6AJWACDrh3XBoVgAQsARMwAScivBOHXpQAAUf/oWrABEzACeYxAQOlCNgu6OkkYDXgegUc8SLwe6MCqDEBqwFLwAR8YAFrBg3UKWAJmIAJOAvNhQQMjE7AekFHXws1YAIuTsBH4QL+YFQAErAEnFjAasAEbJQABKwGLAET8JACDn1Ia/eaQQOlCNguaAIm4AkIOLwXJQEDVSZgNWACJuCDftFWM2iAgCXg9AJW3atYwGfBE1kzaKAUAesFPR0BS8AVC/iUgAEJWAImYAIeXsDzuyEegwECVgNWAyZgAu4o4HQ3D4CA+2EX9HQSsBpwxQI+loABCVgNWAIm4OEF3AQLeE/AQI0CloAJmIAzES7gS8MCKEPAekFHXws1YAIuUMAXBAxIwBLwoQSsBkzART5AAgRcgIDVgCVgAs7EuQQMjE3AdkETMAHXJWDnEQI1JmA1YAIm4MN+09aBwAABS8DJBawGTMASMDAiAesFPR0B15KAZ81sPruaXf/K1eM/nsxOKhXwSgIGJGAJmIBzcXIym83m19erxSPr9fbn/23WT//4pOHZycmJBPz6MPnoVgs8Z7EbIkqOVMBqwJULuJn9EO9yuX7k/pFff639479tH/+/m5vF4uOjhysT8GnwNLx1qwVeEPABusnZBT2dBDzVGnDTzObzR/ku15vd408U8Cvttuv/SXhWkYCDZ/JXt1qgl4AvU32m94CnI+CJJuBmfr34kXn34WN1d98+xeHF9bIaAQfP5D0BAzUKWAIm4Fj5rp6KvZtuo3R/v95IwBIwUKqA9YKOvhZqwAMxm81Wi/V9u88/Micg4GMCBiRgCfhQAp5WDfgx/C7Xz7daEXBvAX9xqwUqFLAasAQcaLfZ9WKxGW5sViXgb261QBkCtguagAvU73yxaYdkAgJuCBiQgNWACbgfs6e15x0BS8DAgKyCBZwuhKkBTycBT6IG/LT4PGz6lYABHB1dhyfgZO1c9YKejoCnkICb+XKzbwm4w99zR8BAD64OIGAJmIBL0u/Ta0ctAXe5dhsCBnowCxdwMgeoAUcLWA04l0Jmq+Vu1xJwt6t3TsDAyBKwXdDTScBjrwHPl/cHib+1JeCHmXstUISAvQc8HQGPOwHPH+Nv2xIwAQOHuQWF74JOdqSnGjABl0AzXxxOv5UtQT/M3WuBPgk42ZGeekFHXws14Ays1vctAQ8kYAkYeM7sQgKWgLsLeLw14PnqvG0JWAIGDsjFxBOwGrAE/JI6mgNWf6cj4E8SMDCIgNt0Al6nYCcBE3D3/LvctAQ8oIAlYKCXgJOdKNZcf0zAeX4BqwFPVMDN9cHz7yQEfLSUgIGRCfjoZMC5LwFnFfA4a8Cnh2g9OcUEvJSAgWEEfFPWHx64+qUGLAH/qo1VAflXAgZwFL4VtLBucp8kYALu5t+7tiVgCRg4PJ8J+FXUgKco4NWmJWAJGBiXgB8kYAl49DXgphT/SsAAwgW8HaWA1YAl4J+VcXrXErAEDIzKYz1VJgETcBGcnrcELAEDpXgseENoH8+MU8BqwBMTcDNftgQsAQPFRAICloC7C3hcNeCmnPwrAQM4Wk1cwGrAEvA/vtgRsAQMjDIBf5CAJeARC7hZleRfCRgAAb+OGvCkBHy6aQlYAgZGKeC9BCwBj7gGPC/LvxIwgPDDeQsLO2rAEnAMs2VLwBIwUBTvwgV8W9QfLgETcJQrdgQsAQNjTcBtdQJWA56OgMvpgCUBA/hrTocL+KsELAGPtAY8u2gJWAIGxivg72MUsBqwBPw4ysMbvhGwBAwMdmsKX5or6zxCCZiAw3/J4hagJWAABPwGasATEfDxeUvAEjBQnoDD7019XCYBTzMBj6MGXOACtAQMIEbAZZ1HqAYsAQcyL3ABWgIGEPEQW9hpDBIwAQdS4gK0BAwgWGQ1ClgNeBICPr0jYAkYKDIBhwt4eAtIwGrA/Ud4mQFYAgZwdDZtAasB156Aw48bIWAJGBj4/hR+yyjqOCQJmICDrnChAbiuBPyNgIGeAi7qZqsGTMBjDsB1JeBvbrRAD8vUKGAJePw14GIDcGUJ2I0W6Cngok5jUAOWgANY7Qg4n4DPCRgYSsC3JwX93f9l71yW00qSAGqgPwABvZclFGyFjKLXg1GwHgmC/1CL4PdH7nZHtMdgZdYjK6vqnMVMRG+Mr++tU/moLOF0IyLgrgU8cBsAI2AA0FwI/OxJwJP8AqYGXL2A/QbATQj4CQEDxAn4CQETAYcK2HkN2HEAjIABQCNgV6OwhAKmBtxzBDw5IGAEDNBGkOBJwA9EwAj4o3d7fkLACBigDQFfO/rd1IAR8EdMDwgYAQN4FvAjAiYCDhWw7xrw6oSAfQj4mYUWIHaV8jSLUpiCpgbcbwQ82iaz5X6/22w28/X65kfWm/X7f9/s930KWPyAv7LOAsQK2NNqSwSMgD9glka+x+N+v3k375erq6vx1WD87X++/9/g/T9NH25v5vOn/eFw6E3A8iOML6yzALHLlKd9LDVgBJxGV79mt7m5uf2ynL5L98KrNH6X8PTLl4ebm/lm31cEjIAB7ATs6SAwEbAHAXuuAQ+jW7C+5Z1vviylf+DVu4S/5aOJgBEwQFrNeBMwNWAi4F8T3YL1tr5ZXo3lL9Dg02BwNX2YI+CfXhMEDBAdKMTYjAgYAZuimDBzNvpdv8e+IbfYDibdCFiegqYJC+CCgOW9ose+BEwNuGYBTyLse9zv1stx3temqwj4M+sswPmvSCHgez8/mwjYg4Ad14BjpmDtvuWeM782DQh4iIABYgW8kAvY0XdEDZgI+JeyCj8EvLm5jUn19CNg+ahtBAxw4auWC9hTKUd6GUOEHYmAKxZw8D0Mx12UfomAiYABFCDgS+sLNeB6BRx6CHi/Dmq9QsAIGCCzgB3NVJcKeBnxRxABV1sDDhxDedzcLKPfzH5S0DU2jwD44o8qBfzgRsDUgB0SmIHeJQjV+hHwDAEDxKK4DsnRQWAiYASc5qX+F+vbBC94PwJeIWAAw2Dh7b62Xx0jYGrA1Qo4aArHcbNM8mYSASNggBwC/lzbryYCzipgrzXgYUj8+7xM82YSASNgAPGCoZjE4UfA1ICJgBPEZv/6q6wTvdwI2PUIPQBn6TpFw6if9ZYIGAFHm+qH47/LVG9mNwK+Q8AA0auVQsB+bjWhBoyAk+wp/+l/XqaSBAJGwABZBOznHBIRsAcBO60B6y9i2KXof+5NwOIJAp6uUQNwhmYSh5sviRowEfBF1BcxvCWc8YaAf/67ImCA6EySp3NIRMAIOMWW8vuM1YSG6EfAWwQMEM1KvlDZFyMLCpgacKUCVpeAn1PuKxEwAgbIImD7UIwImBpwpncj0/H2bgQsbx5ZI2CAFOuVmwWXGjAR8CWUcyiPKRPQHQlYnmj4yiILcImhQsBuPiUiYAR8yVPKEnDSBDQCRsAAOSzgqppDDRgBX/KUrgScerxbNwKeImAA2wXLTRs0EbAHAbusAStLwKkLlN0IWP6cP7PIAiSJGLwImBowEfAFdIOgk18UgIARMED679pVGzQRMAK+8DrrerDSdmD1JODZobZFA8CjgDXnkLxsZqkBI+ALz/SuaADcj4BXJwQMYJuz89JPQQTsQcAea8CansIc14sgYAQMkH7J+DveG/v4zVNqwETAMYmL+PejdwHLU/33rLEASZYsLxebjIiAEXBkYBamQQSszJJkSPMDtCRgRdLOyzkkAwFTA65RwAPNVUjHDC0N3Qh4UduaAeCS0VPZJSuEKRGwh+jGoYA1h+pyzJXpRcDygWM7BAwQ/2F76sLyk4KmBuzrZdb0YN1m+AEI2O34PIDqBfyKgImAHQu4eD2lFwHLR0EjYIBfoRld4KQN2iAFTQ24RgE/KASc5Zq8XgQ83BZ9zADNoDkI7KSjggjYg4Ad1oCLT5XpRsDinQ53MQCkErCTLixqwETAZ1mU3kv2IuAJAgYw/pbcBD10QSPgsyiaoF/yfEydCPi3ylYMAK+MFKtWpmXLYQRMDbhCASte5Uw/vhcBzxAwQBIGirydk55GasAeBOxvbZ1sC2egETCjoAF0aATsowuLWdBEwGf/0eTVlOdMv6APActvfbTP3wDUxR8KAfvY0BIBI+BzKJqgM/UG9SLgOwQMYL5sOUk7UgNGwHFbyVxXBCBgRkED5ErcOTlXTxe0C4+5E7C8mJLrXq9OBCwfII+AAT7QmaYNeudBwJwDJgI+5yi5gHM1E/YiYPGe3csV4gBeUV0h4+J6T2rACPjcA5W/yLkGynQiYPkl4q+srwDpBHzyMAuLWdAI+Ny/mfxFzvVMETACBtChOYfkYrQcEbAHAburAcu1kK0y2YmAJ+In/SfLK8CvUbVBexjFQQ2YCPgMv5V/iTsRsHzFeGF5BUi1n83YP6qBLmgEfIZZ+TROHwIezKtKmAG4ZqgSsIMiMOeAEXCUgLP98k4ELJ/D8ZnlFSBNKOZmT0sN2IOAvdWAB6vyWuhEwFsEDGD/PTnpa2QWNBFwTFyWbzpEJwIW79hjPkGATgQ8Vwl4TARMBFy1gPO9wn0IWJ4yYxAWwIeo2qAdZJWoASPgM8/zqXwSpw8By4fXemjZBHCOqg3aQelPmIKO2SoQAVdXA5bHZS+lv6RuBMwcDoBU4Z6bk8AjNwKmBuxIwOIcTr4+wj4ELM+YIWCAj5cuVRfW7r747yUCRsDh28iMRZQ+BHwn36yzuAJ8qII7VQh8Xfr3ClPQMXOrqQG3K+CMrbl9CHjhINcA0A46ARdfeImAPQjYWw1Y3MmQsTOoCwFzDBggKb+rBLweF/65o/wRMDXg6iJguYCL/4a6Bezg2keAlpipBFz8cB9d0Aj4Z0OJW4MydgZ1IWB5E7SL28MBvKO4SdXDvtYgAqYGXF0ELBZwxs6gLgQ8Q8AASaMHnYBLt1ZQA/YgYGc1YPk8t4yvbxcCfpTnysasrQAfs9DloAt/VwZd0NSAq4uA7xCwjYDli8UOAQMk3dT+JeDCOWgiYAQcbKisFZQeBDyQC7j8zB6AGng4aARc+nifNGNODbgnAS8QsImAFU3QXxEwgMQ3KgGXnjAnFLD3CHhbdwTsrQYs9kLGB9qDgBVrxX9YWQGSrl4eDiIZRMAWNeA7UtBFXuGML28PAlZc3XLNygqQNH/nYcJNGxHwAAEj4AoFPEPAAImZqwR8ehk3HgEP3UTA1IATCzjn4dQOBCxvduMYMED6vFL5HDQRsAcBO6vwia8DRsBxH9+T/BQSAgaQLV86AZcdhkUNmAg4XMA5T7F3IGDxc+YUEkCGz6r8AQMiYAQc/gbnnA7RgYCH8kXihXUVIOn37WIYVlc1YAQsY4qATQSsKFb9l3UVQMZKJ+CifdB9RcDmT7rxGjACjvr2FO2aHAMGSL+x/Yt12xGwoxqwVwHXGgHnrEx2IGDFgUVuAwYQopyFVTQHTQSMgH/+F0PAJgKWj+x5Q8AA0nhsUU8Ouq8asLnnGhfwGgFbJBqKz8sDqAllF1bJFse+ImDzmy/qrAEjYBMBr+QCfh2zqgIImSkFXHB/20YNuHYBO4uAHxCwhYAV+/RnFlWA5BFE+QCoswjYOpAgBY2AL7KoIkcGUBtXW51/j+Xm3LRRAx48lhcGETACVqG4DLj0reEAVaHswipwS0BbEfAnoYDNNzrUgBFwgjzZkSZoADkrrYCL7XAbqQELBWzey0IEjIAjN400QQPk29wWCs36jIDNT1xTA0bAl1D0YBWdVgtQG4ryTuEcUxs1YKmAjwiYCNiJgDVrxCtLKkB6rZU/Z9BXBOxVwNSA+xOw4iqkEz1YAJpPXFsEPr0tm42ADWrA0pPXOS+Q7zECZhRl9lfW4f4MwDva+xiKbXIbiYClArbO9DdeA+Y2pPAPTzMu75oVFSBTfun7WnZf5Ic2UgNGwEUiYAQcjKYEfLxnRQXItb+NVhwR8MxpnqHxGjACNtmi0wQNoENdBLaf0mQVATuqAXsVMBFwdwLWlIDLDcoDqBN9EbjMlZ+NRMDSmM36PEfjNeCcudG2BaxKkZmPMAeoHPVJ4EIhcCM1YARcJAJGwCbrA4MoAZQf+UIfAt+X+J19RcDW1bTGa8AnBJz9EdMEDaDnUS3gIgOhG6kBD7c+NzmNR8AI2GJ5YBI0QNYtbrlhHI1EwNKMnnWhvfEacM7kaNMCViXI6MECyKWEwiFwIzXgqfCvcUTACNiBgIea1eGF1RRAi/4kcIlcU2cRsPU5pNZrwBkfZ9MCVp1SZBAlgJqZPgd9sA+BG6kBi1N6fxIBC7YzBwfBWcsC1s3poQkaIOMqVnIeZSMRsFjAr2MEnPDVzXiJV8sCVtWn6MECyBdbFp3U1EoN+NPC5xanTgFPxQLOeK66ZQGrxvQY7xkB2hDwKkDA5rvdRiJgsYCP1x4FfKo1As54rrphAQ/mKgGzlgJk3uaWaoRupAYsNp1xQa31FHTGDWPDAtadkPjKUgqQcxkreBZYuhh5j4AffS5nrQs447GuhgWs2pof6cECyOi2/xPE2OWPjDCESQ1YnO+3nbhdp4Dl7QsZf3jDAlYtDPRgAQQxCxGw8awmAwGbRMCrg8v1rM4asKJ/MN85pHYFrMtAcxkwQFjoF9IHbRyiGSxGJjVgF/cH9BcBZ+wQGjYrYPFm8e/1gIUUIGgdW/gPgf0IOC40dTE9sUcBZ9suNhsBK5cFerAAwngMEfDp2TJGM1iMTGrAk63LiKJSAcsVkS+jv2pVwLrEmPG5OYB2CLgRyfooUisRsDxoM71bptIasKJLKFdCQfoPWp+AdfMB6MECyJ/K+2Fak2GWtJUasPxRm65olUbACgHn+uXSUerVCXj0pMuHjVlHASw2uyX6sPqLgE3PVdYp4E/z4oIQZ8GrE7ByPg8lYIBQhmECNlyPW6kBi2dR2l6vWmkErNg4ZhquLT7CV5uAtdMBrllFAULTTWE56NPObB5WKxGwQsCWw+3rrAGrMjdZDDG6a1XAE92SQAkYwCSX90NEZJaEbqUGrHjSlue8Kk1Ba9KkWZ6mfAdQmYC1V7RQAgYIJzAHfdpblX6aiYAVC5uh7ToQcA5FKDJHlQlYmxN7YQ0FCP/engINbJWEbqYGPHEZVVQq4GHZJKkmTKxMwLopWNaXdwE0RmAftJklmomAJ0WVESngU8UCztBVrjk/X5eAtQEwJWAAq7WkRBK6mRrwSPFs7XRXaQQ8KpolVTUK1yVg7f0sr6ygADFL2SI0BH77bBEDNxMBa25ftjtnXauANdvG1Nf1DB62rQp4pL2hlBIwQBSPp2ADW5SBm6kBq6aOmSX2ahXwVrVTTPyHq/omqhKwcgiH7dAYgAYJzkGfjmsDTzQTAavylmbjhSqtAeumRaQN0wa6o3s1CVgdAB/vWUABotaT4Bz0uyfG+X9eKzVg1bptdsl5pRGwTsBJO4UGyh1rRQIeaFugTWfGADTJKlzAx9vsH2AzEbDqOZul9roQcNKzMto+4YoErJ+LxyBogNjP7hBu4F12AzdTA9Y1mFodBa5UwMpdY8KnOZgfWhWwPgDmFDCAcTRhPDaxnQhYNXTszWjOSaU1YO1xmXRv6YNWUvUIePo/9s5muXFbicKE9QKi6bsfU3R5OyLtyjocqrxXyOJ7JELp9a8oz08cjyQC6AbQxPkmk0U2MWkQB6f/YGyAkQIGwPdm9vET7JgVeDE5YMOpnx7S65IdsOGaJevrKownx4kRYGU+Fx6DoAFwxvZKpO9725b1K1yOAzZ7zZ5uZJAqwIYzzKkCCisLkZIiwBbtEH9i8wTAmVcXAT7+zRotXU4O2DDU78cCixVgQ7WgqRayyJKKEWBlcQz/gr0TgBBn3w8emNOsLccBGwqwnyyw1Byw8cxikrdZW1xdIkSAbc4WaEICgOLje3YS4ON+y/clLicHnP0vUN5yiQ7YeMlSvM3GJlcjRIDvLZ4NcygBoODFzQJz3k24HAdsWjjkxQInI8AEndV2V3fKEOCVRSsE5lACQELx5ibAumXrB15ODtg40u/DAksV4Nmxc7qK3aIaFyvAyubZcBUhADRUR0cOjzmP/s49GwhwwKbHHL2JR8eiE2DzwkHHqrbcTn9FCLCqRz9PBgCw16ArYjHwVO3O7rsUkAPOTeMMPb/FEOuAH4wlo3eKmKpqOC5WgG0SwEeNOZQAEB2Bn1wV+NiXW3IJVs1s2yHAAWfGtW78QWixAmyuGbp1SKrnpW2ZhAABLqwCYBiDBQCV0j04C/BRkxdDK4O2DwE5YHMBPj5yK7BYAbaZHmMfpFH2N5bEL8C53em7X2PfBCDcfvZpl+42pIfiotqNPgTYmwM2LzbvuQtNxeaAbeZGWF/etap2yxVgZZncRgQaADJejgQcyoasFitvjKJ+AnLAxuObzi3WcTjgb3ko6MIJ03nGRoGVZf2zDAHOa7uH01+waQJAheM0rJ9bHFU/Ul6bWRwJDtgmzLD/yvprn+uA92UgLq4nq7ip1YTt4kkfFyvAynYGAC5iAIAwpPdEIsC6J2kJzmvToJ+EHLBV2LRlVeC5AqyHYRfkz8UDyIONcOjOeHWqunI6mzIKMMEUdlXaBtcRgQYgPgs87XFbtzi0ygvzbUGCA7Zybfpbzvhbnz/Pgmh5kE17sFyvhlFoldc7twdgFGD3m8hs48+IQANAbIHfiLZMPfSl09G8KXfm24KEHLBdon3kbEb64xg5FwV4ZZm6HIw8cGHb/utFgAfHIr2VvbnHRQwAkFLT7Zp9WzZ2H+jJcZSdjecQ4YDv7DSjfWTb7eQKsPWB0eB4WDiGn7kF+Bxusj9yNw5Phwg0AKSsdoT7pt5vtrlp7HSd541tTkpCDtjWtR33W64wdPQCfHEamEPRQjvvdeZFObo/AKsAn0xwa7s28sLhg/dzWSYACfFAuXHqoWs3WyPnVpzM72Ab8RPhgK3POH3J5IEFO2D7xjndzxmKVZxW4zF6AT4OfWmlwHm1czheIAINADGudyJ9omvLppnjgyfr25RVN9qX+ojIAduLBmWH9TIcsNP88kN7/X2qvKkrmogQtwCfjhOl4Ul3kt+mcvnaMQcaAHJe6fdP3ZXNdr2+vD8opaaZG5P4OiHCAbsEGQ7lVsEBm2cOLsvW9sKyVJlNGX4wAT7HoTdGxzNVlG+a57cCAIjFAr/XRHcnJ7yZrHC+/mAy8rxomrosu67bDa7ZNhE5YCfR6DuG6y4EO2DH6am6nwI0nxOo+ZQJ6XajJAE+Dp3B4jjJb+d4vvBxVTUAqfHCsYWOx3Ecpt2unGT4J/U052iS3qOm+L/IcMBuoqHbzUkx1pfj+FvjOLVgB0wwOkafkyTbM/n0r2lZVt04Ej6AFwE+57Wn48St379SU7jJ+fkesVcCQM5q5NpH9Ullh2EcPnL+zzSIyAFbDlD8YHXKzW8leNpYy24wzc0JdsAUx0U9Dnrsu4lq+tdOD4OmfQBPAjytDX1aHM2NIFddDe4fnYeLqgFID/VylIoMB+yeZtcnuSjLst40xfc/Tb3ZlO+BfPP2TMEOmK5q/yTCp9OgntSY/gH8CfC59WBaHM2nfE+W5evTSplWCUVlN0qwAGCxwG8JCrDHHDDJwM9xCib07Q+q3TBl0N/jppuEHPDdKGFh+hTg74ujb6uyrpsi3/76p95U1W6kGSh6QAQaAFhggQ6Yqs5N6+E9ov8f15aSA5ZxWvQswO8qPK2O6S6L/tc/wzBQHVjQBAwAD8WbUAH+i12ASRyweuZ9DSk54OwZAhwC/Sf2SQB4eIUAczrgjDnEkJIDzsKHa8YUBRhNwADAApMJsM8cMNmtj3DA7O9yhhfsUhRglGABwMbLKFKA9/ZP7NUBK9YDjk7KAfO+yzk/XJmgAGsYYADYUDuRAiwkB8y9uSblgLkT6jdp7xMU4P0amyQAbNQQYM7U1z3ra0jKAQdPAj/eJSjA6EECgJHVk0QB/sf+gb3mgJm7V5NywIyT22YGY1fpCfAeEWgAOAle27JoB8y7u6blgAN3Au/XM04ASxNg9CABwIqq0nLAXnPAzHHTtBxwYKX6c07BxMIEmOorAABcUqQ3eQIsxgE73mMLB2zxq2PiyxypXJYAa/QgAcCNwIGUYnLA2eoZDpjIAYcdB31aEDNGty5LgDGEAwB2BNZhyXHAnMPGdGIOOKhUTUvuITEBhgEGwEMQWlwdlpwcMOvLTcwBh4zV6Mf0BBhDOADwgBJngQU5YM5pn4k54JAnxfNPdpeWAH9bY28EgJ87afOw5OSAWWPQqTnggMOwzsp6Owm9JAGGAQbAD9JGQgtywJy2LTUHnAXTqnMEekYn8pIE+C/siwAgCB1EgOkcMOMlAqk54HAx6PeTwW0HviABPmyxLwLgR4DvdxBgJgfMWDqUnAMOdiNSu05NgNEDDIDHIDRywEwOmLF9NTkHHGyZfpn5ApcjwOgBBgBB6AU4YLZXq5NzwKFi0D8u5XtNR4A32BMB8IeoiZSC+oAzxhGK6TngQPdX/7iT4GFMRYD7r9gSAfBogSVVQotywHytwOk54DAx6J8/1n0yAox7gAHwSi7oWiRROWA+1UjPAWd3IQI17eyj1FIEGPcAA+CZlZxKaFkOmC28n6ADDiFX+qcdXCUiwAcYYAB8B6FrMWlgWTlgtj02QQccogzrRwnWjD6kZQiwbtfYDgHwrcCVlDSwMAfMpRoJOuCsePYuR/+yg2kIcI8ZHAAEUGApvUjCcsBcLzZFB+x/bOq/TwVPSQgwWpAACIGUgVjSHLBiKcPSKTpg1uulbsYZXlIQ4D0C0AAEoR6QA2ZwwEwFbkk64KwK+DPdyiUsQYB7VGABECgILaMbWJoDZupEStIBM472vP2SExBgDIEGIJwCiyjEkpYDnnOTHRzwTAfsV7E+nglWyxdgtAADEI5iJ0CB5TlgltqhNB0w32jP235QLV6A0QIMQFgFRg6Y3gGzWOA0HfCMWwHp+M86uHUfongB1t/W2AIBCBiEFlAKvbd/vFAOOKvpLXCiDtjjMA79aKaW0gVYtwhAAxCWeox9o3YIQQfKAbNstIk6YI8W+FNHTrVsAT5gBAcAoT1w9AosMAfM4Nt0qg7YmwX+nBB9WbQA6w0C0AAEV+Aq6nbgoXMoFAmVA57eKhwwjQNmeJVzE6L3SxbgATOgAYhCgWPepluXOFk4B0w/wylZB+ypF/jvtWkGQ7YAYwQWAFGwircduC+d8lTBcsAZfXI9WQfsZxyWfjRePqIFuEMCGIBIFPgpTgXWvWOaKqADJt9r03XAPi6v/u2lfDe6ySQLMEZQAhANRZxR6P02d3uucDngjLx4KGEH7KFU/7c/jNotVYBRgAVAVAocnwfuW+coWUgHnKmS9J0m7ICzFbduHTYWcilXgHsUYAGAKPS1M/qB4JAeMgdMvdum7ICz+zfen+VCq9vrQgUY+gtAZB44rquRdOsafg7ugGkroXXKDpjpjuVfUnrhR3kgF+DnOL4t7HcAxEVexTOVUnclyR4RNAd8oiZ8pUk7YN5K/YsVSeQCnEWQ6oH+AhAhxDlLtx2RJkYW2AGTGrekHTBrEFo/2qUwbAQ4gpa/HvoLQIweuI7DA/fllkZ/A+eAM9Ly8rQdMGMl9JWK4OsjQKxuCSnKwB8Z/C8AkVLvgp/P9dDRtUiEdsAnx9PBAdO8dcXkHfWViqTrjcB213Spehdw9qvGAA4AoiX8/cCHTU6mv8FzwBlhIVbqDpirF+naSMbrNVOW92SqkD1/e+gvANGimrClWH27yQkfJ7wDngwPHDDNW2e5u7q9OhKKQ4CnMHQX5pXrFgOwAIhagqsh2Pl86Ms16cMEzwGf4/o0EcfkHTCLAt8YyfgHiwBPTzIE0d+v2OAAiFqAVbBSrL7c5rQPE4EDnmrbKKLQGg6Y4e7qW3fSvzAJcF4E+Mr0txz7GwCxU4cIQ+uupZ9PG0EOmCwKDQc8hWdoV+bNer+r87z3Loti5fsr032J/C8AElzwy86//nKMh4/CARM5NzjgjPru6ttXAvEJMGF1wMyHxf0LAMggb/wWah7azZZje4giB5zRdFjDAZ/fJN20GL1vbq65q31Ie+evzF9PsG6bNfY1AIRQlJ2vMhHdd1zBsUgc8BTW71yFAw74XRKpIrfDnIpgxSnAkwmuvHxmusf4DQBEhaG9dSt2G7bakDhywO8nGtcuVjjg7wuT6NaQeZL0zCrAU2zEx2d2QPgZAGkKXFdv/Ltwu2n4ajPjccCn11m6vU04YMJ4/vEwM+hyVYDXNJ8ZdyC6R/gZAIlx6GrgDJDpYWhL1s6Iu2HoZ/zZf/XxNlW1czE7pg74dRh2Uf+xfuvKeWKqnn0j/ctwkXFPtDDyumNsCx462F8ARJIXnL0SfdnkvHuDaubhK6bgUMNr3AdcNLHjsizdVt5+O3fd3ZeX2ZB9ZozlWH2Zo/sXAKGsap5qrKFry4Z/Z1DZen3zr/L1MlVR2tdimW73p8daR/3X7UXuHOyvQc2fKi5DuXyLuqyc6/R+09zXbiC/AAhG1dUw0m4N46BT3RjuK9vjzDcsxQ+r0jYMPfy/vTtKbhMGAgBabgDjG8i+gM0NGHKBDkwvEu5fCTdNw5AYbNIEeG+Sn0x+vLPSaoWEv+uF2EMcaG236DCr7D7D2ue64pHGbfQB3LHc675Ydvex16NM/FdxZxPcHM/ftSgV8TMt+MjnuSrP2l/YQNkoQ73ETnTXNmnred93EuNy5p4zNzrgYb0Ks0+1fcr7ThcdaIdLHGkLHMlq4yd19Re2U4MXWJw/18Gi/M7LnzrgkTjOS8nu5xq2ZLPyUj96/68J51x+wIYqcFHG1fnTA0vysN+d52HlOJQzQ9nWvsl1JI7l9D3brgnHdVSlLKZHOpN151hr6lB+9vUC4CsKR5wX6nbW7eBf8d/rul7L7Pf/+px+r7Gdsm8f4xe8S2FcysibUUwhXNmxvyyu0eJYS4Otm/GEp3/EI1Vgk/Is3Vmcc2Giu3a+uUlhOMNm/QO/9nYA09pF/D7oF2+2wU36so98dQmSp52S6acvuv5qX/FDqsCW++C0GR2uvfA7lfja9VbpdQWlfecPikcZZ9hQj0QyNm1NbHxDXL3YOri5MXMJp/FGuD/1F1cwxXoH26HPkT5L6us7uAZ5khKl6jPFSIPdNB6pDJ+eRl7S1zQhVMdUeZWO6VX4TSSb6rp2EcCpUewfmw4zMa5gtnEXp+gL8aWvxKdBnpxiopxlCuys8ciKPy7l8eXn/PK3rMiEaJr8NZIvDvHXvvPMKPap+CYXUzZuZ6FW5MW4TKbAjnu4V2YCvrhV/Es0AAAAAAAAAAAAAAAAAAAAAAAAAAAAAAAAAAAAAAAAAAAAAAAAAAAAAAAAAAAAAAAAAAAAAAAAAAAAAAAAAAAAAAAAAAAAAAAAAAAAAAAAAAAAAAAAAAAAAAAAAAAAAAAAAAAAAAAAAAAAAAAAAAAAAAAAAAAAAAAAAAAAAAAAAAAAAAAAAAAAAAAAAAAAAAAAAAAAAAAAAAAAAAAAAAAAAAAAAAAAAAAAAAAAAABgKb8B3US2iOknj9UAAAAASUVORK5CYII=;" parent="BEkTw003qSyDK9eR2Wev-5" vertex="1">
          <mxGeometry x="270" y="60" width="71.11" height="40" as="geometry" />
        </mxCell>
        <mxCell id="BEkTw003qSyDK9eR2Wev-9" value="" style="endArrow=classic;startArrow=classic;html=1;rounded=0;exitX=1;exitY=0.5;exitDx=0;exitDy=0;entryX=0;entryY=0.25;entryDx=0;entryDy=0;" parent="BEkTw003qSyDK9eR2Wev-5" edge="1">
          <mxGeometry width="50" height="50" relative="1" as="geometry">
            <mxPoint x="70" y="69.28999999999996" as="sourcePoint" />
            <mxPoint x="294" y="70.28999999999996" as="targetPoint" />
          </mxGeometry>
        </mxCell>
        <mxCell id="BEkTw003qSyDK9eR2Wev-10" value="" style="shape=image;verticalLabelPosition=bottom;labelBackgroundColor=default;verticalAlign=top;aspect=fixed;imageAspect=0;image=https://cdn.freebiesupply.com/logos/thumbs/2x/visual-studio-code-logo.png;" parent="BEkTw003qSyDK9eR2Wev-5" vertex="1">
          <mxGeometry x="47" y="37" width="26.67" height="20" as="geometry" />
        </mxCell>
        <mxCell id="BEkTw003qSyDK9eR2Wev-11" value="&lt;b&gt;&lt;font style=&quot;font-size: 18px&quot;&gt;VS Code&lt;/font&gt;&lt;/b&gt;" style="text;html=1;resizable=0;autosize=1;align=center;verticalAlign=middle;points=[];fillColor=none;strokeColor=none;rounded=0;" parent="BEkTw003qSyDK9eR2Wev-5" vertex="1">
          <mxGeometry x="30" y="10" width="90" height="20" as="geometry" />
        </mxCell>
        <mxCell id="BEkTw003qSyDK9eR2Wev-12" value="&lt;b&gt;&lt;font style=&quot;font-size: 18px&quot;&gt;Git Server(GitHub, GitLab, Bitbucket)&lt;/font&gt;&lt;/b&gt;" style="text;html=1;resizable=0;autosize=1;align=center;verticalAlign=middle;points=[];fillColor=none;strokeColor=none;rounded=0;" parent="BEkTw003qSyDK9eR2Wev-5" vertex="1">
          <mxGeometry x="243" y="20" width="330" height="20" as="geometry" />
        </mxCell>
        <mxCell id="BEkTw003qSyDK9eR2Wev-104" value="WebHook" style="text;html=1;strokeColor=none;fillColor=none;align=center;verticalAlign=middle;whiteSpace=wrap;rounded=0;" parent="BEkTw003qSyDK9eR2Wev-5" vertex="1">
          <mxGeometry x="312" y="110" width="60" height="30" as="geometry" />
        </mxCell>
        <mxCell id="BEkTw003qSyDK9eR2Wev-13" value="&lt;font style=&quot;font-size: 18px;&quot;&gt;Jenkins&lt;/font&gt;" style="swimlane;startSize=20;horizontal=0;html=1;" parent="BEkTw003qSyDK9eR2Wev-4" vertex="1">
          <mxGeometry y="150" width="1320" height="140" as="geometry">
            <mxRectangle y="160" width="1380" height="40" as="alternateBounds" />
          </mxGeometry>
        </mxCell>
        <mxCell id="BEkTw003qSyDK9eR2Wev-14" value="" style="whiteSpace=wrap;html=1;fillColor=#e1d5e7;strokeColor=#9673a6;" parent="BEkTw003qSyDK9eR2Wev-13" vertex="1">
          <mxGeometry x="20" width="1300" height="140" as="geometry" />
        </mxCell>
        <mxCell id="BEkTw003qSyDK9eR2Wev-21" value="" style="endArrow=classic;html=1;rounded=0;exitX=1;exitY=0.5;exitDx=0;exitDy=0;entryX=0;entryY=0.5;entryDx=0;entryDy=0;" parent="BEkTw003qSyDK9eR2Wev-13" edge="1">
          <mxGeometry width="50" height="50" relative="1" as="geometry">
            <mxPoint x="371.6700000000001" y="90" as="sourcePoint" />
            <mxPoint x="411.6700000000001" y="90" as="targetPoint" />
          </mxGeometry>
        </mxCell>
        <mxCell id="BEkTw003qSyDK9eR2Wev-96" value="&lt;b&gt;&lt;font style=&quot;font-size: 17px;&quot;&gt;wrapper/stub&amp;nbsp; &amp;nbsp; &amp;nbsp; &amp;nbsp; &amp;nbsp; &amp;nbsp; &amp;nbsp; &amp;nbsp; &amp;nbsp; &amp;nbsp; &amp;nbsp; &amp;nbsp; &amp;nbsp; &amp;nbsp; &amp;nbsp; &amp;nbsp; &amp;nbsp; &amp;nbsp; &amp;nbsp;&amp;nbsp;&lt;/font&gt;&lt;/b&gt;" style="rounded=0;whiteSpace=wrap;html=1;fillColor=#d5e8d4;strokeColor=#82b366;" parent="BEkTw003qSyDK9eR2Wev-13" vertex="1">
          <mxGeometry x="182.67000000000007" y="44" width="802" height="50" as="geometry" />
        </mxCell>
        <mxCell id="BEkTw003qSyDK9eR2Wev-97" value="&lt;font style=&quot;font-size: 24px;&quot;&gt;Jenkins Job&lt;/font&gt;" style="text;html=1;strokeColor=none;fillColor=none;align=center;verticalAlign=middle;whiteSpace=wrap;rounded=0;" parent="BEkTw003qSyDK9eR2Wev-13" vertex="1">
          <mxGeometry x="38.67" y="53" width="130" height="30" as="geometry" />
        </mxCell>
        <mxCell id="BEkTw003qSyDK9eR2Wev-48" value="" style="shape=doubleArrow;direction=south;whiteSpace=wrap;html=1;" parent="BEkTw003qSyDK9eR2Wev-13" vertex="1">
          <mxGeometry x="290" y="-41" width="14" height="85" as="geometry" />
        </mxCell>
        <mxCell id="BEkTw003qSyDK9eR2Wev-115" value="&lt;font style=&quot;font-size: 18px;&quot;&gt;RDOp&lt;/font&gt;" style="swimlane;startSize=20;horizontal=0;html=1;" parent="BEkTw003qSyDK9eR2Wev-4" vertex="1">
          <mxGeometry y="290" width="1320" height="140" as="geometry">
            <mxRectangle y="160" width="1380" height="40" as="alternateBounds" />
          </mxGeometry>
        </mxCell>
        <mxCell id="BEkTw003qSyDK9eR2Wev-116" value="" style="whiteSpace=wrap;html=1;fillColor=#eeeeee;strokeColor=#36393d;" parent="BEkTw003qSyDK9eR2Wev-115" vertex="1">
          <mxGeometry x="20" width="1300" height="140" as="geometry" />
        </mxCell>
        <mxCell id="hh2636ww-rOC9nr4U4GM-5" value="&lt;span style=&quot;font-size: 24px;&quot;&gt;RDOp pipeline&lt;/span&gt;" style="text;html=1;strokeColor=none;fillColor=none;align=center;verticalAlign=middle;whiteSpace=wrap;rounded=0;" vertex="1" parent="BEkTw003qSyDK9eR2Wev-115">
          <mxGeometry x="14" y="50" width="178.67" height="30" as="geometry" />
        </mxCell>
        <mxCell id="BEkTw003qSyDK9eR2Wev-83" value="&lt;font style=&quot;font-size: 18px;&quot;&gt;RDOi&lt;/font&gt;" style="swimlane;startSize=20;horizontal=0;html=1;" parent="BEkTw003qSyDK9eR2Wev-4" vertex="1">
          <mxGeometry y="430" width="1320" height="131" as="geometry">
            <mxRectangle y="160" width="1380" height="40" as="alternateBounds" />
          </mxGeometry>
        </mxCell>
        <mxCell id="BEkTw003qSyDK9eR2Wev-84" value="" style="whiteSpace=wrap;html=1;fillColor=#dae8fc;strokeColor=#6c8ebf;" parent="BEkTw003qSyDK9eR2Wev-83" vertex="1">
          <mxGeometry x="21" width="1299" height="130" as="geometry" />
        </mxCell>
        <mxCell id="BEkTw003qSyDK9eR2Wev-159" value="IBM i PASE - Jenkins agent&amp;nbsp; &amp;nbsp; &amp;nbsp; &amp;nbsp; &amp;nbsp; &amp;nbsp; &amp;nbsp; &amp;nbsp; &amp;nbsp; &amp;nbsp; &amp;nbsp; &amp;nbsp; &amp;nbsp; &amp;nbsp; &amp;nbsp; &amp;nbsp; &amp;nbsp; &amp;nbsp; &amp;nbsp; &amp;nbsp; &amp;nbsp; &amp;nbsp; &amp;nbsp; &amp;nbsp; &amp;nbsp; &amp;nbsp; &amp;nbsp; &amp;nbsp; &amp;nbsp; &amp;nbsp; &amp;nbsp; &amp;nbsp; &amp;nbsp; &amp;nbsp; &amp;nbsp; &amp;nbsp;" style="rounded=0;whiteSpace=wrap;html=1;" parent="BEkTw003qSyDK9eR2Wev-83" vertex="1">
          <mxGeometry x="241" y="10" width="429" height="82" as="geometry" />
        </mxCell>
        <mxCell id="BEkTw003qSyDK9eR2Wev-155" value="RDOi-API" style="rounded=1;whiteSpace=wrap;html=1;" parent="BEkTw003qSyDK9eR2Wev-83" vertex="1">
          <mxGeometry x="447" y="33" width="213" height="38" as="geometry" />
        </mxCell>
        <mxCell id="BEkTw003qSyDK9eR2Wev-165" value="RDOi builder" style="rounded=0;whiteSpace=wrap;html=1;" parent="BEkTw003qSyDK9eR2Wev-83" vertex="1">
          <mxGeometry x="751" y="12" width="250" height="79" as="geometry" />
        </mxCell>
        <mxCell id="BEkTw003qSyDK9eR2Wev-167" value="" style="shape=doubleArrow;direction=south;whiteSpace=wrap;html=1;rotation=90;" parent="BEkTw003qSyDK9eR2Wev-83" vertex="1">
          <mxGeometry x="703.5" y="12" width="14" height="79" as="geometry" />
        </mxCell>
        <mxCell id="BEkTw003qSyDK9eR2Wev-153" value="" style="shape=doubleArrow;direction=south;whiteSpace=wrap;html=1;" parent="1" vertex="1">
          <mxGeometry x="-1017" y="805" width="14" height="85" as="geometry" />
        </mxCell>
        <mxCell id="BEkTw003qSyDK9eR2Wev-156" value="" style="shape=doubleArrow;direction=south;whiteSpace=wrap;html=1;" parent="1" vertex="1">
          <mxGeometry x="-1016" y="940" width="14" height="85" as="geometry" />
        </mxCell>
        <mxCell id="BEkTw003qSyDK9eR2Wev-157" value="RDOi-API" style="text;html=1;strokeColor=none;fillColor=none;align=center;verticalAlign=middle;whiteSpace=wrap;rounded=0;" parent="1" vertex="1">
          <mxGeometry x="-1024" y="961" width="120" height="30" as="geometry" />
        </mxCell>
        <mxCell id="BEkTw003qSyDK9eR2Wev-169" value="Build" style="text;html=1;strokeColor=none;fillColor=none;align=center;verticalAlign=middle;whiteSpace=wrap;rounded=0;" parent="1" vertex="1">
          <mxGeometry x="-816" y="1010" width="81" height="30" as="geometry" />
        </mxCell>
        <mxCell id="hh2636ww-rOC9nr4U4GM-1" value="" style="rounded=0;whiteSpace=wrap;html=1;fillColor=#d5e8d4;strokeColor=#82b366;" vertex="1" parent="1">
          <mxGeometry x="-1297.33" y="889" width="802" height="50" as="geometry" />
        </mxCell>
        <mxCell id="hh2636ww-rOC9nr4U4GM-2" value="&lt;b&gt;SCM sync&amp;nbsp;&lt;/b&gt;" style="rounded=1;whiteSpace=wrap;html=1;" vertex="1" parent="1">
          <mxGeometry x="-1190.33" y="894" width="96" height="40" as="geometry" />
        </mxCell>
        <mxCell id="hh2636ww-rOC9nr4U4GM-3" value="&lt;b style=&quot;border-color: var(--border-color);&quot;&gt;Build&lt;/b&gt;" style="rounded=1;whiteSpace=wrap;html=1;" vertex="1" parent="1">
          <mxGeometry x="-1056" y="894" width="96" height="40" as="geometry" />
        </mxCell>
        <mxCell id="hh2636ww-rOC9nr4U4GM-4" value="&lt;b&gt;Test&lt;/b&gt;" style="rounded=1;whiteSpace=wrap;html=1;" vertex="1" parent="1">
          <mxGeometry x="-928" y="894" width="96" height="40" as="geometry" />
        </mxCell>
        <mxCell id="BEkTw003qSyDK9eR2Wev-173" value="" style="endArrow=classic;html=1;rounded=0;" parent="1" edge="1">
          <mxGeometry width="50" height="50" relative="1" as="geometry">
            <mxPoint x="-957" y="914" as="sourcePoint" />
            <mxPoint x="-928" y="914" as="targetPoint" />
          </mxGeometry>
        </mxCell>
        <mxCell id="hh2636ww-rOC9nr4U4GM-6" value="" style="endArrow=classic;html=1;rounded=0;" edge="1" parent="1">
          <mxGeometry width="50" height="50" relative="1" as="geometry">
            <mxPoint x="-1088" y="913" as="sourcePoint" />
            <mxPoint x="-1059" y="913" as="targetPoint" />
          </mxGeometry>
        </mxCell>
        <mxCell id="hh2636ww-rOC9nr4U4GM-7" value="&lt;b&gt;Deploy&lt;/b&gt;" style="rounded=1;whiteSpace=wrap;html=1;" vertex="1" parent="1">
          <mxGeometry x="-805" y="894" width="96" height="40" as="geometry" />
        </mxCell>
        <mxCell id="hh2636ww-rOC9nr4U4GM-8" value="" style="endArrow=classic;html=1;rounded=0;" edge="1" parent="1">
          <mxGeometry width="50" height="50" relative="1" as="geometry">
            <mxPoint x="-833" y="916" as="sourcePoint" />
            <mxPoint x="-804" y="916" as="targetPoint" />
          </mxGeometry>
        </mxCell>
      </root>
    </mxGraphModel>
  </diagram>
</mxfile>
